<?xml version="1.0" encoding="UTF-8"?><svg id="Layer_1" xmlns="http://www.w3.org/2000/svg" viewBox="0 0 1253.91 113.74"><defs><style>.cls-1{fill:#f2f2f2;}</style></defs><rect class="cls-1" x="229.4" y="54.42" width="8.35" height="8.35" transform="translate(-.6 2.45) rotate(-.6)"/><rect class="cls-1" x="237.76" y="54.33" width="8.35" height="8.35" transform="translate(-.6 2.53) rotate(-.6)"/><rect class="cls-1" x="237.67" y="45.98" width="8.35" height="8.35" transform="translate(-.51 2.53) rotate(-.6)"/><rect class="cls-1" x="246.02" y="45.89" width="8.35" height="8.35" transform="translate(-.51 2.62) rotate(-.6)"/><rect class="cls-1" x="237.84" y="62.68" width="8.35" height="8.35" transform="translate(-.69 2.54) rotate(-.6)"/><rect class="cls-1" x="246.2" y="62.6" width="8.35" height="8.35" transform="translate(-.69 2.62) rotate(-.6)"/><rect class="cls-1" x="246.29" y="70.95" width="8.35" height="8.35" transform="translate(-.77 2.63) rotate(-.6)"/><rect class="cls-1" x="245.94" y="37.54" width="8.35" height="8.35" transform="translate(-.42 2.62) rotate(-.6)"/><rect class="cls-1" x="262.82" y="54.07" width="8.35" height="8.35" transform="translate(534.58 113.69) rotate(179.4)"/><rect class="cls-1" x="254.46" y="54.16" width="8.35" height="8.35" transform="translate(517.88 113.96) rotate(179.4)"/><rect class="cls-1" x="254.38" y="45.8" width="8.35" height="8.35" transform="translate(517.62 97.25) rotate(179.4)"/><rect class="cls-1" x="254.55" y="62.51" width="8.35" height="8.35" transform="translate(518.14 130.66) rotate(179.4)"/><rect class="cls-1" x="262.47" y="20.65" width="8.35" height="8.35" transform="translate(-.25 2.79) rotate(-.6)"/><rect class="cls-1" x="270.82" y="20.57" width="8.35" height="8.35" transform="translate(-.24 2.88) rotate(-.6)"/><rect class="cls-1" x="270.73" y="12.21" width="8.35" height="8.35" transform="translate(-.16 2.88) rotate(-.6)"/><rect class="cls-1" x="279.09" y="12.12" width="8.35" height="8.35" transform="translate(-.16 2.97) rotate(-.6)"/><rect class="cls-1" x="270.91" y="28.92" width="8.35" height="8.35" transform="translate(-.33 2.88) rotate(-.6)"/><rect class="cls-1" x="279.26" y="28.83" width="8.35" height="8.35" transform="translate(-.33 2.97) rotate(-.6)"/><rect class="cls-1" x="279.35" y="37.19" width="8.35" height="8.35" transform="translate(-.42 2.97) rotate(-.6)"/><rect class="cls-1" x="279" y="3.77" width="8.35" height="8.35" transform="translate(-.07 2.96) rotate(-.6)"/><rect class="cls-1" x="295.88" y="20.3" width="8.35" height="8.35" transform="translate(600.36 45.82) rotate(179.4)"/><rect class="cls-1" x="287.53" y="20.39" width="8.35" height="8.35" transform="translate(583.65 46.08) rotate(179.4)"/><rect class="cls-1" x="287.44" y="12.04" width="8.35" height="8.35" transform="translate(583.39 29.38) rotate(179.4)"/><rect class="cls-1" x="287.62" y="28.74" width="8.35" height="8.35" transform="translate(583.92 62.79) rotate(179.4)"/><rect class="cls-1" x="296.23" y="53.72" width="8.35" height="8.35" transform="translate(-.59 3.15) rotate(-.6)"/><rect class="cls-1" x="304.59" y="53.63" width="8.35" height="8.35" transform="translate(-.59 3.23) rotate(-.6)"/><rect class="cls-1" x="304.5" y="45.28" width="8.35" height="8.35" transform="translate(-.5 3.23) rotate(-.6)"/><rect class="cls-1" x="312.85" y="45.19" width="8.35" height="8.35" transform="translate(-.5 3.32) rotate(-.6)"/><rect class="cls-1" x="304.67" y="61.99" width="8.35" height="8.35" transform="translate(-.68 3.24) rotate(-.6)"/><rect class="cls-1" x="313.03" y="61.9" width="8.35" height="8.35" transform="translate(-.67 3.32) rotate(-.6)"/><rect class="cls-1" x="313.12" y="70.25" width="8.35" height="8.35" transform="translate(-.76 3.32) rotate(-.6)"/><rect class="cls-1" x="312.77" y="36.84" width="8.35" height="8.35" transform="translate(-.41 3.32) rotate(-.6)"/><rect class="cls-1" x="329.65" y="53.37" width="8.35" height="8.35" transform="translate(668.23 111.6) rotate(179.4)"/><rect class="cls-1" x="321.29" y="53.46" width="8.35" height="8.35" transform="translate(651.53 111.86) rotate(179.4)"/><rect class="cls-1" x="321.21" y="45.1" width="8.35" height="8.35" transform="translate(651.27 95.15) rotate(179.4)"/><rect class="cls-1" x="321.38" y="61.81" width="8.35" height="8.35" transform="translate(651.79 128.56) rotate(179.4)"/><rect class="cls-1" x="263.17" y="87.48" width="8.35" height="8.35" transform="translate(-.94 2.8) rotate(-.6)"/><rect class="cls-1" x="271.52" y="87.4" width="8.35" height="8.35" transform="translate(-.94 2.89) rotate(-.6)"/><rect class="cls-1" x="271.43" y="79.04" width="8.35" height="8.35" transform="translate(-.86 2.89) rotate(-.6)"/><rect class="cls-1" x="279.79" y="78.95" width="8.35" height="8.35" transform="translate(-.85 2.98) rotate(-.6)"/><rect class="cls-1" x="271.61" y="95.75" width="8.35" height="8.35" transform="translate(-1.03 2.89) rotate(-.6)"/><rect class="cls-1" x="279.96" y="95.66" width="8.35" height="8.35" transform="translate(-1.03 2.98) rotate(-.6)"/><rect class="cls-1" x="280.05" y="104.02" width="8.35" height="8.35" transform="translate(-1.12 2.98) rotate(-.6)"/><rect class="cls-1" x="279.7" y="70.6" width="8.35" height="8.35" transform="translate(-.77 2.97) rotate(-.6)"/><rect class="cls-1" x="296.58" y="87.13" width="8.35" height="8.35" transform="translate(602.46 179.47) rotate(179.4)"/><rect class="cls-1" x="288.23" y="87.22" width="8.35" height="8.35" transform="translate(585.75 179.73) rotate(179.4)"/><rect class="cls-1" x="288.14" y="78.87" width="8.35" height="8.35" transform="translate(585.49 163.03) rotate(179.4)"/><rect class="cls-1" x="288.32" y="95.57" width="8.35" height="8.35" transform="translate(586.01 196.44) rotate(179.4)"/><rect class="cls-1" x="271.08" y="45.63" width="8.35" height="8.35" transform="translate(-.51 2.88) rotate(-.6)"/><rect class="cls-1" x="287.79" y="45.45" width="8.35" height="8.35" transform="translate(-.5 3.06) rotate(-.6)"/><rect class="cls-1" x="287.97" y="62.16" width="8.35" height="8.35" transform="translate(-.68 3.06) rotate(-.6)"/><rect class="cls-1" x="271.26" y="62.33" width="8.35" height="8.35" transform="translate(-.68 2.89) rotate(-.6)"/><rect class="cls-1" x="279.53" y="53.89" width="8.35" height="8.35" transform="translate(-.59 2.97) rotate(-.6)"/><rect class="cls-1" x="262.64" y="37.36" width="8.35" height="8.35" transform="translate(-.42 2.79) rotate(-.6)"/><rect class="cls-1" x="254.2" y="29.09" width="8.35" height="8.35" transform="translate(-.33 2.71) rotate(-.6)"/><rect class="cls-1" x="245.76" y="20.83" width="8.35" height="8.35" transform="translate(-.25 2.62) rotate(-.6)"/><rect class="cls-1" x="237.32" y="12.56" width="8.35" height="8.35" transform="translate(-.16 2.53) rotate(-.6)"/><rect class="cls-1" x="228.88" y="4.3" width="8.35" height="8.35" transform="translate(-.08 2.44) rotate(-.6)"/><rect class="cls-1" x="330.17" y="103.49" width="8.35" height="8.35" transform="translate(-1.11 3.5) rotate(-.6)"/><rect class="cls-1" x="321.73" y="95.23" width="8.35" height="8.35" transform="translate(-1.02 3.42) rotate(-.6)"/><rect class="cls-1" x="313.29" y="86.96" width="8.35" height="8.35" transform="translate(-.94 3.33) rotate(-.6)"/><rect class="cls-1" x="304.85" y="78.69" width="8.35" height="8.35" transform="translate(-.85 3.24) rotate(-.6)"/><rect class="cls-1" x="296.41" y="70.43" width="8.35" height="8.35" transform="translate(-.76 3.15) rotate(-.6)"/><rect class="cls-1" x="329.12" y="3.25" width="8.35" height="8.35" transform="translate(329.36 340.78) rotate(-90.6)"/><rect class="cls-1" x="320.86" y="11.69" width="8.35" height="8.35" transform="translate(312.57 341.05) rotate(-90.6)"/><rect class="cls-1" x="312.59" y="20.13" width="8.35" height="8.35" transform="translate(295.78 341.31) rotate(-90.6)"/><rect class="cls-1" x="304.32" y="28.57" width="8.35" height="8.35" transform="translate(278.98 341.57) rotate(-90.6)"/><rect class="cls-1" x="296.06" y="37.01" width="8.35" height="8.35" transform="translate(262.19 341.84) rotate(-90.6)"/><rect class="cls-1" x="262.99" y="70.78" width="8.35" height="8.35" transform="translate(195.02 342.89) rotate(-90.6)"/><rect class="cls-1" x="254.73" y="79.22" width="8.35" height="8.35" transform="translate(178.22 343.16) rotate(-90.6)"/><rect class="cls-1" x="246.46" y="87.66" width="8.35" height="8.35" transform="translate(161.43 343.42) rotate(-90.6)"/><rect class="cls-1" x="238.19" y="96.1" width="8.35" height="8.35" transform="translate(144.64 343.68) rotate(-90.6)"/><rect class="cls-1" x="229.93" y="104.54" width="8.35" height="8.35" transform="translate(127.84 343.95) rotate(-90.6)"/><rect class="cls-1" x="114.99" y="54.82" width="8.35" height="8.35" transform="translate(-.61 1.25) rotate(-.6)"/><rect class="cls-1" x="123.34" y="54.73" width="8.35" height="8.35" transform="translate(-.61 1.34) rotate(-.6)"/><rect class="cls-1" x="123.25" y="46.38" width="8.35" height="8.35" transform="translate(-.52 1.34) rotate(-.6)"/><rect class="cls-1" x="131.61" y="46.29" width="8.35" height="8.35" transform="translate(-.52 1.42) rotate(-.6)"/><rect class="cls-1" x="123.43" y="63.08" width="8.35" height="8.35" transform="translate(-.7 1.34) rotate(-.6)"/><rect class="cls-1" x="131.78" y="63" width="8.35" height="8.35" transform="translate(-.7 1.43) rotate(-.6)"/><rect class="cls-1" x="131.87" y="71.35" width="8.35" height="8.35" transform="translate(-.78 1.43) rotate(-.6)"/><rect class="cls-1" x="131.52" y="37.94" width="8.35" height="8.35" transform="translate(-.43 1.42) rotate(-.6)"/><rect class="cls-1" x="148.4" y="54.47" width="8.35" height="8.35" transform="translate(305.76 115.69) rotate(179.4)"/><rect class="cls-1" x="140.05" y="54.56" width="8.35" height="8.35" transform="translate(289.05 115.95) rotate(179.4)"/><rect class="cls-1" x="139.96" y="46.2" width="8.35" height="8.35" transform="translate(288.79 99.25) rotate(179.4)"/><rect class="cls-1" x="140.13" y="62.91" width="8.35" height="8.35" transform="translate(289.32 132.66) rotate(179.4)"/><rect class="cls-1" x="148.05" y="21.05" width="8.35" height="8.35" transform="translate(-.26 1.59) rotate(-.6)"/><rect class="cls-1" x="156.4" y="20.97" width="8.35" height="8.35" transform="translate(-.25 1.68) rotate(-.6)"/><rect class="cls-1" x="156.32" y="12.61" width="8.35" height="8.35" transform="translate(-.17 1.68) rotate(-.6)"/><rect class="cls-1" x="164.67" y="12.53" width="8.35" height="8.35" transform="translate(-.17 1.77) rotate(-.6)"/><rect class="cls-1" x="156.49" y="29.32" width="8.35" height="8.35" transform="translate(-.34 1.68) rotate(-.6)"/><rect class="cls-1" x="164.85" y="29.23" width="8.35" height="8.35" transform="translate(-.34 1.77) rotate(-.6)"/><rect class="cls-1" x="164.93" y="37.59" width="8.35" height="8.35" transform="translate(-.43 1.77) rotate(-.6)"/><rect class="cls-1" x="164.58" y="4.17" width="8.35" height="8.35" transform="translate(-.08 1.77) rotate(-.6)"/><rect class="cls-1" x="181.47" y="20.7" width="8.35" height="8.35" transform="translate(371.54 47.82) rotate(179.4)"/><rect class="cls-1" x="173.11" y="20.79" width="8.35" height="8.35" transform="translate(354.83 48.08) rotate(179.4)"/><rect class="cls-1" x="173.02" y="12.44" width="8.35" height="8.35" transform="translate(354.57 31.37) rotate(179.4)"/><rect class="cls-1" x="173.2" y="29.15" width="8.35" height="8.35" transform="translate(355.09 64.79) rotate(179.4)"/><rect class="cls-1" x="181.82" y="54.12" width="8.35" height="8.35" transform="translate(-.6 1.95) rotate(-.6)"/><rect class="cls-1" x="190.17" y="54.03" width="8.35" height="8.35" transform="translate(-.6 2.04) rotate(-.6)"/><rect class="cls-1" x="190.08" y="45.68" width="8.35" height="8.35" transform="translate(-.51 2.04) rotate(-.6)"/><rect class="cls-1" x="198.44" y="45.59" width="8.35" height="8.35" transform="translate(-.51 2.12) rotate(-.6)"/><rect class="cls-1" x="190.26" y="62.39" width="8.35" height="8.35" transform="translate(-.69 2.04) rotate(-.6)"/><rect class="cls-1" x="198.61" y="62.3" width="8.35" height="8.35" transform="translate(-.68 2.13) rotate(-.6)"/><rect class="cls-1" x="198.7" y="70.65" width="8.35" height="8.35" transform="translate(-.77 2.13) rotate(-.6)"/><rect class="cls-1" x="198.35" y="37.24" width="8.35" height="8.35" transform="translate(-.42 2.12) rotate(-.6)"/><rect class="cls-1" x="215.23" y="53.77" width="8.35" height="8.35" transform="translate(439.41 113.59) rotate(179.4)"/><rect class="cls-1" x="206.88" y="53.86" width="8.35" height="8.35" transform="translate(422.7 113.86) rotate(179.4)"/><rect class="cls-1" x="206.79" y="45.5" width="8.35" height="8.35" transform="translate(422.44 97.15) rotate(179.4)"/><rect class="cls-1" x="206.96" y="62.21" width="8.35" height="8.35" transform="translate(422.97 130.56) rotate(179.4)"/><rect class="cls-1" x="148.75" y="87.88" width="8.35" height="8.35" transform="translate(-.96 1.61) rotate(-.6)"/><rect class="cls-1" x="157.1" y="87.8" width="8.35" height="8.35" transform="translate(-.95 1.69) rotate(-.6)"/><rect class="cls-1" x="157.02" y="79.44" width="8.35" height="8.35" transform="translate(-.87 1.69) rotate(-.6)"/><rect class="cls-1" x="165.37" y="79.36" width="8.35" height="8.35" transform="translate(-.86 1.78) rotate(-.6)"/><rect class="cls-1" x="157.19" y="96.15" width="8.35" height="8.35" transform="translate(-1.04 1.69) rotate(-.6)"/><rect class="cls-1" x="165.54" y="96.06" width="8.35" height="8.35" transform="translate(-1.04 1.78) rotate(-.6)"/><rect class="cls-1" x="165.63" y="104.42" width="8.35" height="8.35" transform="translate(-1.13 1.78) rotate(-.6)"/><rect class="cls-1" x="165.28" y="71" width="8.35" height="8.35" transform="translate(-.78 1.78) rotate(-.6)"/><rect class="cls-1" x="182.17" y="87.53" width="8.35" height="8.35" transform="translate(373.63 181.47) rotate(179.4)"/><rect class="cls-1" x="173.81" y="87.62" width="8.35" height="8.35" transform="translate(356.93 181.73) rotate(179.4)"/><rect class="cls-1" x="173.72" y="79.27" width="8.35" height="8.35" transform="translate(356.67 165.02) rotate(179.4)"/><rect class="cls-1" x="173.9" y="95.98" width="8.35" height="8.35" transform="translate(357.19 198.44) rotate(179.4)"/><rect class="cls-1" x="156.67" y="46.03" width="8.35" height="8.35" transform="translate(-.52 1.69) rotate(-.6)"/><rect class="cls-1" x="173.37" y="45.85" width="8.35" height="8.35" transform="translate(-.51 1.86) rotate(-.6)"/><rect class="cls-1" x="173.55" y="62.56" width="8.35" height="8.35" transform="translate(-.69 1.86) rotate(-.6)"/><rect class="cls-1" x="156.84" y="62.74" width="8.35" height="8.35" transform="translate(-.69 1.69) rotate(-.6)"/><rect class="cls-1" x="165.11" y="54.29" width="8.35" height="8.35" transform="translate(-.6 1.77) rotate(-.6)"/><rect class="cls-1" x="148.23" y="37.76" width="8.35" height="8.35" transform="translate(-.43 1.6) rotate(-.6)"/><rect class="cls-1" x="139.78" y="29.5" width="8.35" height="8.35" transform="translate(-.34 1.51) rotate(-.6)"/><rect class="cls-1" x="131.34" y="21.23" width="8.35" height="8.35" transform="translate(-.26 1.42) rotate(-.6)"/><rect class="cls-1" x="122.9" y="12.96" width="8.35" height="8.35" transform="translate(-.17 1.33) rotate(-.6)"/><rect class="cls-1" x="114.46" y="4.7" width="8.35" height="8.35" transform="translate(-.09 1.24) rotate(-.6)"/><rect class="cls-1" x="215.75" y="103.89" width="8.35" height="8.35" transform="translate(-1.12 2.31) rotate(-.6)"/><rect class="cls-1" x="207.31" y="95.63" width="8.35" height="8.35" transform="translate(-1.03 2.22) rotate(-.6)"/><rect class="cls-1" x="198.87" y="87.36" width="8.35" height="8.35" transform="translate(-.95 2.13) rotate(-.6)"/><rect class="cls-1" x="190.43" y="79.09" width="8.35" height="8.35" transform="translate(-.86 2.04) rotate(-.6)"/><rect class="cls-1" x="181.99" y="70.83" width="8.35" height="8.35" transform="translate(-.77 1.95) rotate(-.6)"/><rect class="cls-1" x="214.71" y="3.65" width="8.35" height="8.35" transform="translate(213.35 226.78) rotate(-90.6)"/><rect class="cls-1" x="206.44" y="12.09" width="8.35" height="8.35" transform="translate(196.56 227.04) rotate(-90.6)"/><rect class="cls-1" x="198.17" y="20.53" width="8.35" height="8.35" transform="translate(179.76 227.3) rotate(-90.6)"/><rect class="cls-1" x="189.91" y="28.97" width="8.35" height="8.35" transform="translate(162.97 227.57) rotate(-90.6)"/><rect class="cls-1" x="181.64" y="37.41" width="8.35" height="8.35" transform="translate(146.18 227.83) rotate(-90.6)"/><rect class="cls-1" x="148.58" y="71.18" width="8.35" height="8.35" transform="translate(79 228.89) rotate(-90.6)"/><rect class="cls-1" x="140.31" y="79.62" width="8.35" height="8.35" transform="translate(62.21 229.15) rotate(-90.6)"/><rect class="cls-1" x="132.04" y="88.06" width="8.35" height="8.35" transform="translate(45.41 229.41) rotate(-90.6)"/><rect class="cls-1" x="123.78" y="96.5" width="8.35" height="8.35" transform="translate(28.62 229.68) rotate(-90.6)"/><rect class="cls-1" x="115.51" y="104.94" width="8.35" height="8.35" transform="translate(11.83 229.94) rotate(-90.6)"/><rect class="cls-1" x=".57" y="55.22" width="8.35" height="8.35" transform="translate(-.62 .05) rotate(-.6)"/><rect class="cls-1" x="8.92" y="55.13" width="8.35" height="8.35" transform="translate(-.62 .14) rotate(-.6)"/><rect class="cls-1" x="8.83" y="46.78" width="8.35" height="8.35" transform="translate(-.53 .14) rotate(-.6)"/><rect class="cls-1" x="17.19" y="46.69" width="8.35" height="8.35" transform="translate(-.53 .23) rotate(-.6)"/><rect class="cls-1" x="9.01" y="63.49" width="8.35" height="8.35" transform="translate(-.71 .14) rotate(-.6)"/><rect class="cls-1" x="17.36" y="63.4" width="8.35" height="8.35" transform="translate(-.71 .23) rotate(-.6)"/><rect class="cls-1" x="17.45" y="71.75" width="8.35" height="8.35" transform="translate(-.79 .23) rotate(-.6)"/><rect class="cls-1" x="17.1" y="38.34" width="8.35" height="8.35" transform="translate(-.44 .22) rotate(-.6)"/><rect class="cls-1" x="33.98" y="54.87" width="8.35" height="8.35" transform="translate(76.94 117.69) rotate(179.4)"/><rect class="cls-1" x="25.63" y="54.96" width="8.35" height="8.35" transform="translate(60.23 117.95) rotate(179.4)"/><rect class="cls-1" x="25.54" y="46.6" width="8.35" height="8.35" transform="translate(59.97 101.25) rotate(179.4)"/><rect class="cls-1" x="25.72" y="63.31" width="8.35" height="8.35" transform="translate(60.49 134.66) rotate(179.4)"/><rect class="cls-1" x="33.63" y="21.45" width="8.35" height="8.35" transform="translate(-.27 .4) rotate(-.6)"/><rect class="cls-1" x="41.99" y="21.37" width="8.35" height="8.35" transform="translate(-.26 .48) rotate(-.6)"/><rect class="cls-1" x="41.9" y="13.01" width="8.35" height="8.35" transform="translate(-.18 .48) rotate(-.6)"/><rect class="cls-1" x="50.25" y="12.93" width="8.35" height="8.35" transform="translate(-.18 .57) rotate(-.6)"/><rect class="cls-1" x="42.07" y="29.72" width="8.35" height="8.35" transform="translate(-.35 .49) rotate(-.6)"/><rect class="cls-1" x="50.43" y="29.63" width="8.35" height="8.35" transform="translate(-.35 .57) rotate(-.6)"/><rect class="cls-1" x="50.52" y="37.99" width="8.35" height="8.35" transform="translate(-.44 .57) rotate(-.6)"/><rect class="cls-1" x="50.17" y="4.57" width="8.35" height="8.35" transform="translate(-.09 .57) rotate(-.6)"/><rect class="cls-1" x="67.05" y="21.1" width="8.35" height="8.35" transform="translate(142.71 49.82) rotate(179.4)"/><rect class="cls-1" x="58.69" y="21.19" width="8.35" height="8.35" transform="translate(126.01 50.08) rotate(179.4)"/><rect class="cls-1" x="58.61" y="12.84" width="8.35" height="8.35" transform="translate(125.74 33.37) rotate(179.4)"/><rect class="cls-1" x="58.78" y="29.55" width="8.35" height="8.35" transform="translate(126.27 66.78) rotate(179.4)"/><rect class="cls-1" x="67.4" y="54.52" width="8.35" height="8.35" transform="translate(-.61 .75) rotate(-.6)"/><rect class="cls-1" x="75.75" y="54.43" width="8.35" height="8.35" transform="translate(-.61 .84) rotate(-.6)"/><rect class="cls-1" x="75.66" y="46.08" width="8.35" height="8.35" transform="translate(-.52 .84) rotate(-.6)"/><rect class="cls-1" x="84.02" y="45.99" width="8.35" height="8.35" transform="translate(-.52 .93) rotate(-.6)"/><rect class="cls-1" x="75.84" y="62.79" width="8.35" height="8.35" transform="translate(-.7 .84) rotate(-.6)"/><rect class="cls-1" x="84.19" y="62.7" width="8.35" height="8.35" transform="translate(-.69 .93) rotate(-.6)"/><rect class="cls-1" x="84.28" y="71.05" width="8.35" height="8.35" transform="translate(-.78 .93) rotate(-.6)"/><rect class="cls-1" x="83.93" y="37.64" width="8.35" height="8.35" transform="translate(-.43 .92) rotate(-.6)"/><rect class="cls-1" x="100.81" y="54.17" width="8.35" height="8.35" transform="translate(210.59 115.59) rotate(179.4)"/><rect class="cls-1" x="92.46" y="54.26" width="8.35" height="8.35" transform="translate(193.88 115.85) rotate(179.4)"/><rect class="cls-1" x="92.37" y="45.9" width="8.35" height="8.35" transform="translate(193.62 99.15) rotate(179.4)"/><rect class="cls-1" x="92.55" y="62.61" width="8.35" height="8.35" transform="translate(194.14 132.56) rotate(179.4)"/><rect class="cls-1" x="34.33" y="88.28" width="8.35" height="8.35" transform="translate(-.97 .41) rotate(-.6)"/><rect class="cls-1" x="42.69" y="88.2" width="8.35" height="8.35" transform="translate(-.96 .5) rotate(-.6)"/><rect class="cls-1" x="42.6" y="79.84" width="8.35" height="8.35" transform="translate(-.88 .49) rotate(-.6)"/><rect class="cls-1" x="50.95" y="79.76" width="8.35" height="8.35" transform="translate(-.88 .58) rotate(-.6)"/><rect class="cls-1" x="42.77" y="96.55" width="8.35" height="8.35" transform="translate(-1.05 .5) rotate(-.6)"/><rect class="cls-1" x="51.13" y="96.46" width="8.35" height="8.35" transform="translate(-1.05 .58) rotate(-.6)"/><rect class="cls-1" x="51.22" y="104.82" width="8.35" height="8.35" transform="translate(-1.14 .59) rotate(-.6)"/><rect class="cls-1" x="50.87" y="71.4" width="8.35" height="8.35" transform="translate(-.79 .58) rotate(-.6)"/><rect class="cls-1" x="67.75" y="87.93" width="8.35" height="8.35" transform="translate(144.81 183.47) rotate(179.4)"/><rect class="cls-1" x="59.39" y="88.02" width="8.35" height="8.35" transform="translate(128.1 183.73) rotate(179.4)"/><rect class="cls-1" x="59.31" y="79.67" width="8.35" height="8.35" transform="translate(127.84 167.02) rotate(179.4)"/><rect class="cls-1" x="59.48" y="96.38" width="8.35" height="8.35" transform="translate(128.37 200.43) rotate(179.4)"/><rect class="cls-1" x="42.25" y="46.43" width="8.35" height="8.35" transform="translate(-.53 .49) rotate(-.6)"/><rect class="cls-1" x="58.96" y="46.25" width="8.35" height="8.35" transform="translate(-.52 .66) rotate(-.6)"/><rect class="cls-1" x="59.13" y="62.96" width="8.35" height="8.35" transform="translate(-.7 .67) rotate(-.6)"/><rect class="cls-1" x="42.42" y="63.14" width="8.35" height="8.35" transform="translate(-.7 .49) rotate(-.6)"/><rect class="cls-1" x="50.69" y="54.69" width="8.35" height="8.35" transform="translate(-.61 .58) rotate(-.6)"/><rect class="cls-1" x="33.81" y="38.16" width="8.35" height="8.35" transform="translate(-.44 .4) rotate(-.6)"/><rect class="cls-1" x="25.37" y="29.9" width="8.35" height="8.35" transform="translate(-.35 .31) rotate(-.6)"/><rect class="cls-1" x="16.93" y="21.63" width="8.35" height="8.35" transform="translate(-.27 .22) rotate(-.6)"/><rect class="cls-1" x="8.48" y="13.36" width="8.35" height="8.35" transform="translate(-.18 .13) rotate(-.6)"/><rect class="cls-1" x=".04" y="5.1" width="8.35" height="8.35" transform="translate(-.1 .04) rotate(-.6)"/><rect class="cls-1" x="101.34" y="104.29" width="8.35" height="8.35" transform="translate(-1.13 1.11) rotate(-.6)"/><rect class="cls-1" x="92.9" y="96.03" width="8.35" height="8.35" transform="translate(-1.04 1.02) rotate(-.6)"/><rect class="cls-1" x="84.46" y="87.76" width="8.35" height="8.35" transform="translate(-.96 .93) rotate(-.6)"/><rect class="cls-1" x="76.01" y="79.49" width="8.35" height="8.35" transform="translate(-.87 .84) rotate(-.6)"/><rect class="cls-1" x="67.57" y="71.23" width="8.35" height="8.35" transform="translate(-.79 .75) rotate(-.6)"/><rect class="cls-1" x="100.29" y="4.05" width="8.35" height="8.35" transform="translate(97.33 112.77) rotate(-90.6)"/><rect class="cls-1" x="92.02" y="12.49" width="8.35" height="8.35" transform="translate(80.54 113.03) rotate(-90.6)"/><rect class="cls-1" x="83.76" y="20.93" width="8.35" height="8.35" transform="translate(63.75 113.3) rotate(-90.6)"/><rect class="cls-1" x="75.49" y="29.37" width="8.35" height="8.35" transform="translate(46.95 113.56) rotate(-90.6)"/><rect class="cls-1" x="67.22" y="37.81" width="8.35" height="8.35" transform="translate(30.16 113.82) rotate(-90.6)"/><rect class="cls-1" x="34.16" y="71.58" width="8.35" height="8.35" transform="translate(-37.01 114.88) rotate(-90.6)"/><rect class="cls-1" x="25.89" y="80.02" width="8.35" height="8.35" transform="translate(-53.81 115.14) rotate(-90.6)"/><rect class="cls-1" x="17.63" y="88.46" width="8.35" height="8.35" transform="translate(-70.6 115.41) rotate(-90.6)"/><rect class="cls-1" x="9.36" y="96.9" width="8.35" height="8.35" transform="translate(-87.39 115.67) rotate(-90.6)"/><rect class="cls-1" x="1.09" y="105.34" width="8.35" height="8.35" transform="translate(-104.19 115.93) rotate(-90.6)"/><rect class="cls-1" x="572.65" y="53.22" width="8.35" height="8.35" transform="translate(-.57 6.04) rotate(-.6)"/><rect class="cls-1" x="581.01" y="53.13" width="8.35" height="8.35" transform="translate(-.57 6.13) rotate(-.6)"/><rect class="cls-1" x="580.92" y="44.78" width="8.35" height="8.35" transform="translate(-.48 6.13) rotate(-.6)"/><rect class="cls-1" x="589.27" y="44.69" width="8.35" height="8.35" transform="translate(-.48 6.21) rotate(-.6)"/><rect class="cls-1" x="581.1" y="61.48" width="8.35" height="8.35" transform="translate(-.66 6.13) rotate(-.6)"/><rect class="cls-1" x="589.45" y="61.4" width="8.35" height="8.35" transform="translate(-.65 6.22) rotate(-.6)"/><rect class="cls-1" x="589.54" y="69.75" width="8.35" height="8.35" transform="translate(-.74 6.22) rotate(-.6)"/><rect class="cls-1" x="589.19" y="36.33" width="8.35" height="8.35" transform="translate(-.39 6.21) rotate(-.6)"/><rect class="cls-1" x="606.07" y="52.87" width="8.35" height="8.35" transform="translate(1221.06 107.7) rotate(179.4)"/><rect class="cls-1" x="597.72" y="52.95" width="8.35" height="8.35" transform="translate(1204.35 107.96) rotate(179.4)"/><rect class="cls-1" x="597.63" y="44.6" width="8.35" height="8.35" transform="translate(1204.09 91.26) rotate(179.4)"/><rect class="cls-1" x="597.8" y="61.31" width="8.35" height="8.35" transform="translate(1204.61 124.67) rotate(179.4)"/><rect class="cls-1" x="605.72" y="19.45" width="8.35" height="8.35" transform="translate(-.21 6.38) rotate(-.6)"/><rect class="cls-1" x="614.07" y="19.36" width="8.35" height="8.35" transform="translate(-.21 6.47) rotate(-.6)"/><rect class="cls-1" x="613.99" y="11.01" width="8.35" height="8.35" transform="translate(-.13 6.47) rotate(-.6)"/><rect class="cls-1" x="622.34" y="10.92" width="8.35" height="8.35" transform="translate(-.12 6.56) rotate(-.6)"/><rect class="cls-1" x="614.16" y="27.72" width="8.35" height="8.35" transform="translate(-.3 6.47) rotate(-.6)"/><rect class="cls-1" x="622.51" y="27.63" width="8.35" height="8.35" transform="translate(-.3 6.56) rotate(-.6)"/><rect class="cls-1" x="622.6" y="35.98" width="8.35" height="8.35" transform="translate(-.39 6.56) rotate(-.6)"/><rect class="cls-1" x="622.25" y="2.57" width="8.35" height="8.35" transform="translate(-.04 6.56) rotate(-.6)"/><rect class="cls-1" x="639.14" y="19.1" width="8.35" height="8.35" transform="translate(1286.83 39.83) rotate(179.4)"/><rect class="cls-1" x="630.78" y="19.19" width="8.35" height="8.35" transform="translate(1270.13 40.09) rotate(179.4)"/><rect class="cls-1" x="630.69" y="10.84" width="8.35" height="8.35" transform="translate(1269.86 23.38) rotate(179.4)"/><rect class="cls-1" x="630.87" y="27.54" width="8.35" height="8.35" transform="translate(1270.39 56.79) rotate(179.4)"/><rect class="cls-1" x="639.48" y="52.52" width="8.35" height="8.35" transform="translate(-.56 6.74) rotate(-.6)"/><rect class="cls-1" x="647.84" y="52.43" width="8.35" height="8.35" transform="translate(-.56 6.83) rotate(-.6)"/><rect class="cls-1" x="647.75" y="44.08" width="8.35" height="8.35" transform="translate(-.47 6.82) rotate(-.6)"/><rect class="cls-1" x="656.1" y="43.99" width="8.35" height="8.35" transform="translate(-.47 6.91) rotate(-.6)"/><rect class="cls-1" x="647.93" y="60.78" width="8.35" height="8.35" transform="translate(-.64 6.83) rotate(-.6)"/><rect class="cls-1" x="656.28" y="60.7" width="8.35" height="8.35" transform="translate(-.64 6.91) rotate(-.6)"/><rect class="cls-1" x="656.37" y="69.05" width="8.35" height="8.35" transform="translate(-.73 6.92) rotate(-.6)"/><rect class="cls-1" x="656.02" y="35.64" width="8.35" height="8.35" transform="translate(-.38 6.91) rotate(-.6)"/><rect class="cls-1" x="672.9" y="52.17" width="8.35" height="8.35" transform="translate(1354.71 105.6) rotate(179.4)"/><rect class="cls-1" x="664.55" y="52.26" width="8.35" height="8.35" transform="translate(1338 105.86) rotate(179.4)"/><rect class="cls-1" x="664.46" y="43.9" width="8.35" height="8.35" transform="translate(1337.74 89.16) rotate(179.4)"/><rect class="cls-1" x="664.63" y="60.61" width="8.35" height="8.35" transform="translate(1338.26 122.57) rotate(179.4)"/><rect class="cls-1" x="606.42" y="86.28" width="8.35" height="8.35" transform="translate(-.91 6.39) rotate(-.6)"/><rect class="cls-1" x="614.77" y="86.19" width="8.35" height="8.35" transform="translate(-.91 6.48) rotate(-.6)"/><rect class="cls-1" x="614.69" y="77.84" width="8.35" height="8.35" transform="translate(-.82 6.48) rotate(-.6)"/><rect class="cls-1" x="623.04" y="77.75" width="8.35" height="8.35" transform="translate(-.82 6.57) rotate(-.6)"/><rect class="cls-1" x="614.86" y="94.55" width="8.35" height="8.35" transform="translate(-1 6.48) rotate(-.6)"/><rect class="cls-1" x="623.21" y="94.46" width="8.35" height="8.35" transform="translate(-1 6.57) rotate(-.6)"/><rect class="cls-1" x="623.3" y="102.81" width="8.35" height="8.35" transform="translate(-1.09 6.57) rotate(-.6)"/><rect class="cls-1" x="622.95" y="69.4" width="8.35" height="8.35" transform="translate(-.74 6.57) rotate(-.6)"/><rect class="cls-1" x="639.83" y="85.93" width="8.35" height="8.35" transform="translate(1288.93 173.48) rotate(179.4)"/><rect class="cls-1" x="631.48" y="86.02" width="8.35" height="8.35" transform="translate(1272.22 173.74) rotate(179.4)"/><rect class="cls-1" x="631.39" y="77.67" width="8.35" height="8.35" transform="translate(1271.96 157.03) rotate(179.4)"/><rect class="cls-1" x="631.57" y="94.37" width="8.35" height="8.35" transform="translate(1272.49 190.44) rotate(179.4)"/><rect class="cls-1" x="614.34" y="44.43" width="8.35" height="8.35" transform="translate(-.47 6.48) rotate(-.6)"/><rect class="cls-1" x="631.04" y="44.25" width="8.35" height="8.35" transform="translate(-.47 6.65) rotate(-.6)"/><rect class="cls-1" x="631.22" y="60.96" width="8.35" height="8.35" transform="translate(-.65 6.65) rotate(-.6)"/><rect class="cls-1" x="614.51" y="61.13" width="8.35" height="8.35" transform="translate(-.65 6.48) rotate(-.6)"/><rect class="cls-1" x="622.78" y="52.69" width="8.35" height="8.35" transform="translate(-.56 6.56) rotate(-.6)"/><rect class="cls-1" x="605.89" y="36.16" width="8.35" height="8.35" transform="translate(-.39 6.39) rotate(-.6)"/><rect class="cls-1" x="597.45" y="27.89" width="8.35" height="8.35" transform="translate(-.3 6.3) rotate(-.6)"/><rect class="cls-1" x="589.01" y="19.63" width="8.35" height="8.35" transform="translate(-.22 6.21) rotate(-.6)"/><rect class="cls-1" x="580.57" y="11.36" width="8.35" height="8.35" transform="translate(-.13 6.12) rotate(-.6)"/><rect class="cls-1" x="572.13" y="3.09" width="8.35" height="8.35" transform="translate(-.04 6.03) rotate(-.6)"/><rect class="cls-1" x="673.42" y="102.29" width="8.35" height="8.35" transform="translate(-1.08 7.1) rotate(-.6)"/><rect class="cls-1" x="664.98" y="94.02" width="8.35" height="8.35" transform="translate(-.99 7.01) rotate(-.6)"/><rect class="cls-1" x="656.54" y="85.76" width="8.35" height="8.35" transform="translate(-.9 6.92) rotate(-.6)"/><rect class="cls-1" x="648.1" y="77.49" width="8.35" height="8.35" transform="translate(-.82 6.83) rotate(-.6)"/><rect class="cls-1" x="639.66" y="69.23" width="8.35" height="8.35" transform="translate(-.73 6.74) rotate(-.6)"/><rect class="cls-1" x="672.38" y="2.05" width="8.35" height="8.35" transform="translate(677.41 682.8) rotate(-90.6)"/><rect class="cls-1" x="664.11" y="10.49" width="8.35" height="8.35" transform="translate(660.62 683.07) rotate(-90.6)"/><rect class="cls-1" x="655.84" y="18.93" width="8.35" height="8.35" transform="translate(643.82 683.33) rotate(-90.6)"/><rect class="cls-1" x="647.58" y="27.37" width="8.35" height="8.35" transform="translate(627.03 683.59) rotate(-90.6)"/><rect class="cls-1" x="639.31" y="35.81" width="8.35" height="8.35" transform="translate(610.24 683.86) rotate(-90.6)"/><rect class="cls-1" x="606.24" y="69.57" width="8.35" height="8.35" transform="translate(543.06 684.91) rotate(-90.6)"/><rect class="cls-1" x="597.98" y="78.02" width="8.35" height="8.35" transform="translate(526.27 685.18) rotate(-90.6)"/><rect class="cls-1" x="589.71" y="86.46" width="8.35" height="8.35" transform="translate(509.47 685.44) rotate(-90.6)"/><rect class="cls-1" x="581.45" y="94.9" width="8.35" height="8.35" transform="translate(492.68 685.7) rotate(-90.6)"/><rect class="cls-1" x="573.18" y="103.34" width="8.35" height="8.35" transform="translate(475.89 685.97) rotate(-90.6)"/><rect class="cls-1" x="458.24" y="53.62" width="8.35" height="8.35" transform="translate(-.58 4.84) rotate(-.6)"/><rect class="cls-1" x="466.59" y="53.53" width="8.35" height="8.35" transform="translate(-.58 4.93) rotate(-.6)"/><rect class="cls-1" x="466.5" y="45.18" width="8.35" height="8.35" transform="translate(-.49 4.93) rotate(-.6)"/><rect class="cls-1" x="474.86" y="45.09" width="8.35" height="8.35" transform="translate(-.49 5.02) rotate(-.6)"/><rect class="cls-1" x="466.68" y="61.88" width="8.35" height="8.35" transform="translate(-.67 4.93) rotate(-.6)"/><rect class="cls-1" x="475.03" y="61.8" width="8.35" height="8.35" transform="translate(-.66 5.02) rotate(-.6)"/><rect class="cls-1" x="475.12" y="70.15" width="8.35" height="8.35" transform="translate(-.75 5.02) rotate(-.6)"/><rect class="cls-1" x="474.77" y="36.74" width="8.35" height="8.35" transform="translate(-.4 5.01) rotate(-.6)"/><rect class="cls-1" x="491.65" y="53.27" width="8.35" height="8.35" transform="translate(992.23 109.7) rotate(179.4)"/><rect class="cls-1" x="483.3" y="53.36" width="8.35" height="8.35" transform="translate(975.53 109.96) rotate(179.4)"/><rect class="cls-1" x="483.21" y="45" width="8.35" height="8.35" transform="translate(975.26 93.25) rotate(179.4)"/><rect class="cls-1" x="483.39" y="61.71" width="8.35" height="8.35" transform="translate(975.79 126.67) rotate(179.4)"/><rect class="cls-1" x="491.3" y="19.85" width="8.35" height="8.35" transform="translate(-.22 5.19) rotate(-.6)"/><rect class="cls-1" x="499.66" y="19.77" width="8.35" height="8.35" transform="translate(-.22 5.27) rotate(-.6)"/><rect class="cls-1" x="499.57" y="11.41" width="8.35" height="8.35" transform="translate(-.14 5.27) rotate(-.6)"/><rect class="cls-1" x="507.92" y="11.32" width="8.35" height="8.35" transform="translate(-.13 5.36) rotate(-.6)"/><rect class="cls-1" x="499.74" y="28.12" width="8.35" height="8.35" transform="translate(-.31 5.28) rotate(-.6)"/><rect class="cls-1" x="508.1" y="28.03" width="8.35" height="8.35" transform="translate(-.31 5.36) rotate(-.6)"/><rect class="cls-1" x="508.19" y="36.39" width="8.35" height="8.35" transform="translate(-.4 5.36) rotate(-.6)"/><rect class="cls-1" x="507.84" y="2.97" width="8.35" height="8.35" transform="translate(-.05 5.36) rotate(-.6)"/><rect class="cls-1" x="524.72" y="19.5" width="8.35" height="8.35" transform="translate(1058.01 41.82) rotate(179.4)"/><rect class="cls-1" x="516.36" y="19.59" width="8.35" height="8.35" transform="translate(1041.3 42.09) rotate(179.4)"/><rect class="cls-1" x="516.28" y="11.24" width="8.35" height="8.35" transform="translate(1041.04 25.38) rotate(179.4)"/><rect class="cls-1" x="516.45" y="27.94" width="8.35" height="8.35" transform="translate(1041.56 58.79) rotate(179.4)"/><rect class="cls-1" x="525.07" y="52.92" width="8.35" height="8.35" transform="translate(-.57 5.54) rotate(-.6)"/><rect class="cls-1" x="533.42" y="52.83" width="8.35" height="8.35" transform="translate(-.57 5.63) rotate(-.6)"/><rect class="cls-1" x="533.33" y="44.48" width="8.35" height="8.35" transform="translate(-.48 5.63) rotate(-.6)"/><rect class="cls-1" x="541.69" y="44.39" width="8.35" height="8.35" transform="translate(-.48 5.71) rotate(-.6)"/><rect class="cls-1" x="533.51" y="61.18" width="8.35" height="8.35" transform="translate(-.65 5.63) rotate(-.6)"/><rect class="cls-1" x="541.86" y="61.1" width="8.35" height="8.35" transform="translate(-.65 5.72) rotate(-.6)"/><rect class="cls-1" x="541.95" y="69.45" width="8.35" height="8.35" transform="translate(-.74 5.72) rotate(-.6)"/><rect class="cls-1" x="541.6" y="36.04" width="8.35" height="8.35" transform="translate(-.39 5.71) rotate(-.6)"/><rect class="cls-1" x="558.48" y="52.57" width="8.35" height="8.35" transform="translate(1125.88 107.6) rotate(179.4)"/><rect class="cls-1" x="550.13" y="52.66" width="8.35" height="8.35" transform="translate(1109.18 107.86) rotate(179.4)"/><rect class="cls-1" x="550.04" y="44.3" width="8.35" height="8.35" transform="translate(1108.91 91.16) rotate(179.4)"/><rect class="cls-1" x="550.22" y="61.01" width="8.35" height="8.35" transform="translate(1109.44 124.57) rotate(179.4)"/><rect class="cls-1" x="492" y="86.68" width="8.35" height="8.35" transform="translate(-.92 5.2) rotate(-.6)"/><rect class="cls-1" x="500.36" y="86.6" width="8.35" height="8.35" transform="translate(-.92 5.28) rotate(-.6)"/><rect class="cls-1" x="500.27" y="78.24" width="8.35" height="8.35" transform="translate(-.83 5.28) rotate(-.6)"/><rect class="cls-1" x="508.62" y="78.15" width="8.35" height="8.35" transform="translate(-.83 5.37) rotate(-.6)"/><rect class="cls-1" x="500.44" y="94.95" width="8.35" height="8.35" transform="translate(-1.01 5.29) rotate(-.6)"/><rect class="cls-1" x="508.8" y="94.86" width="8.35" height="8.35" transform="translate(-1.01 5.37) rotate(-.6)"/><rect class="cls-1" x="508.88" y="103.22" width="8.35" height="8.35" transform="translate(-1.1 5.37) rotate(-.6)"/><rect class="cls-1" x="508.53" y="69.8" width="8.35" height="8.35" transform="translate(-.75 5.37) rotate(-.6)"/><rect class="cls-1" x="525.42" y="86.33" width="8.35" height="8.35" transform="translate(1060.11 175.47) rotate(179.4)"/><rect class="cls-1" x="517.06" y="86.42" width="8.35" height="8.35" transform="translate(1043.4 175.74) rotate(179.4)"/><rect class="cls-1" x="516.98" y="78.07" width="8.35" height="8.35" transform="translate(1043.14 159.03) rotate(179.4)"/><rect class="cls-1" x="517.15" y="94.77" width="8.35" height="8.35" transform="translate(1043.66 192.44) rotate(179.4)"/><rect class="cls-1" x="499.92" y="44.83" width="8.35" height="8.35" transform="translate(-.49 5.28) rotate(-.6)"/><rect class="cls-1" x="516.63" y="44.65" width="8.35" height="8.35" transform="translate(-.48 5.45) rotate(-.6)"/><rect class="cls-1" x="516.8" y="61.36" width="8.35" height="8.35" transform="translate(-.66 5.46) rotate(-.6)"/><rect class="cls-1" x="500.09" y="61.53" width="8.35" height="8.35" transform="translate(-.66 5.28) rotate(-.6)"/><rect class="cls-1" x="508.36" y="53.09" width="8.35" height="8.35" transform="translate(-.57 5.37) rotate(-.6)"/><rect class="cls-1" x="491.48" y="36.56" width="8.35" height="8.35" transform="translate(-.4 5.19) rotate(-.6)"/><rect class="cls-1" x="483.04" y="28.29" width="8.35" height="8.35" transform="translate(-.31 5.1) rotate(-.6)"/><rect class="cls-1" x="474.6" y="20.03" width="8.35" height="8.35" transform="translate(-.23 5.01) rotate(-.6)"/><rect class="cls-1" x="466.15" y="11.76" width="8.35" height="8.35" transform="translate(-.14 4.92) rotate(-.6)"/><rect class="cls-1" x="457.71" y="3.49" width="8.35" height="8.35" transform="translate(-.05 4.83) rotate(-.6)"/><rect class="cls-1" x="559.01" y="102.69" width="8.35" height="8.35" transform="translate(-1.09 5.9) rotate(-.6)"/><rect class="cls-1" x="550.57" y="94.42" width="8.35" height="8.35" transform="translate(-1 5.81) rotate(-.6)"/><rect class="cls-1" x="542.12" y="86.16" width="8.35" height="8.35" transform="translate(-.92 5.72) rotate(-.6)"/><rect class="cls-1" x="533.68" y="77.89" width="8.35" height="8.35" transform="translate(-.83 5.63) rotate(-.6)"/><rect class="cls-1" x="525.24" y="69.63" width="8.35" height="8.35" transform="translate(-.74 5.54) rotate(-.6)"/><rect class="cls-1" x="557.96" y="2.45" width="8.35" height="8.35" transform="translate(561.4 568.8) rotate(-90.6)"/><rect class="cls-1" x="549.69" y="10.89" width="8.35" height="8.35" transform="translate(544.6 569.06) rotate(-90.6)"/><rect class="cls-1" x="541.43" y="19.33" width="8.35" height="8.35" transform="translate(527.81 569.32) rotate(-90.6)"/><rect class="cls-1" x="533.16" y="27.77" width="8.35" height="8.35" transform="translate(511.01 569.59) rotate(-90.6)"/><rect class="cls-1" x="524.89" y="36.21" width="8.35" height="8.35" transform="translate(494.22 569.85) rotate(-90.6)"/><rect class="cls-1" x="491.83" y="69.98" width="8.35" height="8.35" transform="translate(427.05 570.91) rotate(-90.6)"/><rect class="cls-1" x="483.56" y="78.42" width="8.35" height="8.35" transform="translate(410.25 571.17) rotate(-90.6)"/><rect class="cls-1" x="475.29" y="86.86" width="8.35" height="8.35" transform="translate(393.46 571.43) rotate(-90.6)"/><rect class="cls-1" x="467.03" y="95.3" width="8.35" height="8.35" transform="translate(376.67 571.7) rotate(-90.6)"/><rect class="cls-1" x="458.76" y="103.74" width="8.35" height="8.35" transform="translate(359.87 571.96) rotate(-90.6)"/><rect class="cls-1" x="343.82" y="54.02" width="8.35" height="8.35" transform="translate(-.59 3.64) rotate(-.6)"/><rect class="cls-1" x="352.17" y="53.93" width="8.35" height="8.35" transform="translate(-.59 3.73) rotate(-.6)"/><rect class="cls-1" x="352.09" y="45.58" width="8.35" height="8.35" transform="translate(-.5 3.73) rotate(-.6)"/><rect class="cls-1" x="360.44" y="45.49" width="8.35" height="8.35" transform="translate(-.5 3.82) rotate(-.6)"/><rect class="cls-1" x="352.26" y="62.28" width="8.35" height="8.35" transform="translate(-.68 3.73) rotate(-.6)"/><rect class="cls-1" x="360.61" y="62.2" width="8.35" height="8.35" transform="translate(-.67 3.82) rotate(-.6)"/><rect class="cls-1" x="360.7" y="70.55" width="8.35" height="8.35" transform="translate(-.76 3.82) rotate(-.6)"/><rect class="cls-1" x="360.35" y="37.14" width="8.35" height="8.35" transform="translate(-.41 3.82) rotate(-.6)"/><rect class="cls-1" x="377.24" y="53.67" width="8.35" height="8.35" transform="translate(763.41 111.7) rotate(179.4)"/><rect class="cls-1" x="368.88" y="53.76" width="8.35" height="8.35" transform="translate(746.7 111.96) rotate(179.4)"/><rect class="cls-1" x="368.79" y="45.4" width="8.35" height="8.35" transform="translate(746.44 95.25) rotate(179.4)"/><rect class="cls-1" x="368.97" y="62.11" width="8.35" height="8.35" transform="translate(746.96 128.66) rotate(179.4)"/><rect class="cls-1" x="376.89" y="20.25" width="8.35" height="8.35" transform="translate(-.23 3.99) rotate(-.6)"/><rect class="cls-1" x="385.24" y="20.17" width="8.35" height="8.35" transform="translate(-.23 4.08) rotate(-.6)"/><rect class="cls-1" x="385.15" y="11.81" width="8.35" height="8.35" transform="translate(-.15 4.08) rotate(-.6)"/><rect class="cls-1" x="393.51" y="11.72" width="8.35" height="8.35" transform="translate(-.14 4.16) rotate(-.6)"/><rect class="cls-1" x="385.33" y="28.52" width="8.35" height="8.35" transform="translate(-.32 4.08) rotate(-.6)"/><rect class="cls-1" x="393.68" y="28.43" width="8.35" height="8.35" transform="translate(-.32 4.17) rotate(-.6)"/><rect class="cls-1" x="393.77" y="36.79" width="8.35" height="8.35" transform="translate(-.41 4.17) rotate(-.6)"/><rect class="cls-1" x="393.42" y="3.37" width="8.35" height="8.35" transform="translate(-.06 4.16) rotate(-.6)"/><rect class="cls-1" x="410.3" y="19.9" width="8.35" height="8.35" transform="translate(829.18 43.82) rotate(179.4)"/><rect class="cls-1" x="401.95" y="19.99" width="8.35" height="8.35" transform="translate(812.48 44.08) rotate(179.4)"/><rect class="cls-1" x="401.86" y="11.64" width="8.35" height="8.35" transform="translate(812.22 27.38) rotate(179.4)"/><rect class="cls-1" x="402.03" y="28.34" width="8.35" height="8.35" transform="translate(812.74 60.79) rotate(179.4)"/><rect class="cls-1" x="410.65" y="53.32" width="8.35" height="8.35" transform="translate(-.58 4.34) rotate(-.6)"/><rect class="cls-1" x="419" y="53.23" width="8.35" height="8.35" transform="translate(-.58 4.43) rotate(-.6)"/><rect class="cls-1" x="418.92" y="44.88" width="8.35" height="8.35" transform="translate(-.49 4.43) rotate(-.6)"/><rect class="cls-1" x="427.27" y="44.79" width="8.35" height="8.35" transform="translate(-.49 4.52) rotate(-.6)"/><rect class="cls-1" x="419.09" y="61.58" width="8.35" height="8.35" transform="translate(-.66 4.43) rotate(-.6)"/><rect class="cls-1" x="427.44" y="61.5" width="8.35" height="8.35" transform="translate(-.66 4.52) rotate(-.6)"/><rect class="cls-1" x="427.53" y="69.85" width="8.35" height="8.35" transform="translate(-.75 4.52) rotate(-.6)"/><rect class="cls-1" x="427.18" y="36.44" width="8.35" height="8.35" transform="translate(-.4 4.52) rotate(-.6)"/><rect class="cls-1" x="444.07" y="52.97" width="8.35" height="8.35" transform="translate(897.06 109.6) rotate(179.4)"/><rect class="cls-1" x="435.71" y="53.06" width="8.35" height="8.35" transform="translate(880.35 109.86) rotate(179.4)"/><rect class="cls-1" x="435.62" y="44.7" width="8.35" height="8.35" transform="translate(880.09 93.15) rotate(179.4)"/><rect class="cls-1" x="435.8" y="61.41" width="8.35" height="8.35" transform="translate(880.61 126.57) rotate(179.4)"/><rect class="cls-1" x="377.58" y="87.08" width="8.35" height="8.35" transform="translate(-.93 4) rotate(-.6)"/><rect class="cls-1" x="385.94" y="87" width="8.35" height="8.35" transform="translate(-.93 4.09) rotate(-.6)"/><rect class="cls-1" x="385.85" y="78.64" width="8.35" height="8.35" transform="translate(-.85 4.09) rotate(-.6)"/><rect class="cls-1" x="394.2" y="78.55" width="8.35" height="8.35" transform="translate(-.84 4.17) rotate(-.6)"/><rect class="cls-1" x="386.03" y="95.35" width="8.35" height="8.35" transform="translate(-1.02 4.09) rotate(-.6)"/><rect class="cls-1" x="394.38" y="95.26" width="8.35" height="8.35" transform="translate(-1.02 4.18) rotate(-.6)"/><rect class="cls-1" x="394.47" y="103.62" width="8.35" height="8.35" transform="translate(-1.11 4.18) rotate(-.6)"/><rect class="cls-1" x="394.12" y="70.2" width="8.35" height="8.35" transform="translate(-.76 4.17) rotate(-.6)"/><rect class="cls-1" x="411" y="86.73" width="8.35" height="8.35" transform="translate(831.28 177.47) rotate(179.4)"/><rect class="cls-1" x="402.65" y="86.82" width="8.35" height="8.35" transform="translate(814.58 177.73) rotate(179.4)"/><rect class="cls-1" x="402.56" y="78.47" width="8.35" height="8.35" transform="translate(814.31 161.03) rotate(179.4)"/><rect class="cls-1" x="402.73" y="95.17" width="8.35" height="8.35" transform="translate(814.84 194.44) rotate(179.4)"/><rect class="cls-1" x="385.5" y="45.23" width="8.35" height="8.35" transform="translate(-.5 4.08) rotate(-.6)"/><rect class="cls-1" x="402.21" y="45.05" width="8.35" height="8.35" transform="translate(-.49 4.26) rotate(-.6)"/><rect class="cls-1" x="402.38" y="61.76" width="8.35" height="8.35" transform="translate(-.67 4.26) rotate(-.6)"/><rect class="cls-1" x="385.68" y="61.93" width="8.35" height="8.35" transform="translate(-.67 4.08) rotate(-.6)"/><rect class="cls-1" x="393.94" y="53.49" width="8.35" height="8.35" transform="translate(-.58 4.17) rotate(-.6)"/><rect class="cls-1" x="377.06" y="36.96" width="8.35" height="8.35" transform="translate(-.41 3.99) rotate(-.6)"/><rect class="cls-1" x="368.62" y="28.69" width="8.35" height="8.35" transform="translate(-.32 3.9) rotate(-.6)"/><rect class="cls-1" x="360.18" y="20.43" width="8.35" height="8.35" transform="translate(-.24 3.81) rotate(-.6)"/><rect class="cls-1" x="351.74" y="12.16" width="8.35" height="8.35" transform="translate(-.15 3.73) rotate(-.6)"/><rect class="cls-1" x="343.3" y="3.9" width="8.35" height="8.35" transform="translate(-.07 3.64) rotate(-.6)"/><rect class="cls-1" x="444.59" y="103.09" width="8.35" height="8.35" transform="translate(-1.1 4.7) rotate(-.6)"/><rect class="cls-1" x="436.15" y="94.82" width="8.35" height="8.35" transform="translate(-1.01 4.61) rotate(-.6)"/><rect class="cls-1" x="427.71" y="86.56" width="8.35" height="8.35" transform="translate(-.93 4.52) rotate(-.6)"/><rect class="cls-1" x="419.27" y="78.29" width="8.35" height="8.35" transform="translate(-.84 4.44) rotate(-.6)"/><rect class="cls-1" x="410.82" y="70.03" width="8.35" height="8.35" transform="translate(-.75 4.35) rotate(-.6)"/><rect class="cls-1" x="443.54" y="2.85" width="8.35" height="8.35" transform="translate(445.38 454.79) rotate(-90.6)"/><rect class="cls-1" x="435.27" y="11.29" width="8.35" height="8.35" transform="translate(428.59 455.05) rotate(-90.6)"/><rect class="cls-1" x="427.01" y="19.73" width="8.35" height="8.35" transform="translate(411.79 455.32) rotate(-90.6)"/><rect class="cls-1" x="418.74" y="28.17" width="8.35" height="8.35" transform="translate(395 455.58) rotate(-90.6)"/><rect class="cls-1" x="410.48" y="36.61" width="8.35" height="8.35" transform="translate(378.21 455.84) rotate(-90.6)"/><rect class="cls-1" x="377.41" y="70.38" width="8.35" height="8.35" transform="translate(311.03 456.9) rotate(-90.6)"/><rect class="cls-1" x="369.14" y="78.82" width="8.35" height="8.35" transform="translate(294.24 457.16) rotate(-90.6)"/><rect class="cls-1" x="360.88" y="87.26" width="8.35" height="8.35" transform="translate(277.44 457.43) rotate(-90.6)"/><rect class="cls-1" x="352.61" y="95.7" width="8.35" height="8.35" transform="translate(260.65 457.69) rotate(-90.6)"/><rect class="cls-1" x="344.34" y="104.14" width="8.35" height="8.35" transform="translate(243.86 457.95) rotate(-90.6)"/><rect class="cls-1" x="915.91" y="52.02" width="8.35" height="8.35" transform="translate(-.54 9.63) rotate(-.6)"/><rect class="cls-1" x="924.26" y="51.93" width="8.35" height="8.35" transform="translate(-.54 9.72) rotate(-.6)"/><rect class="cls-1" x="924.17" y="43.57" width="8.35" height="8.35" transform="translate(-.45 9.72) rotate(-.6)"/><rect class="cls-1" x="932.53" y="43.49" width="8.35" height="8.35" transform="translate(-.45 9.8) rotate(-.6)"/><rect class="cls-1" x="924.35" y="60.28" width="8.35" height="8.35" transform="translate(-.62 9.72) rotate(-.6)"/><rect class="cls-1" x="932.7" y="60.19" width="8.35" height="8.35" transform="translate(-.62 9.81) rotate(-.6)"/><rect class="cls-1" x="932.79" y="68.55" width="8.35" height="8.35" transform="translate(-.71 9.81) rotate(-.6)"/><rect class="cls-1" x="932.44" y="35.13" width="8.35" height="8.35" transform="translate(-.36 9.8) rotate(-.6)"/><rect class="cls-1" x="949.32" y="51.67" width="8.35" height="8.35" transform="translate(1907.53 101.71) rotate(179.4)"/><rect class="cls-1" x="940.97" y="51.75" width="8.35" height="8.35" transform="translate(1890.82 101.97) rotate(179.4)"/><rect class="cls-1" x="940.88" y="43.4" width="8.35" height="8.35" transform="translate(1890.56 85.26) rotate(179.4)"/><rect class="cls-1" x="941.06" y="60.11" width="8.35" height="8.35" transform="translate(1891.09 118.67) rotate(179.4)"/><rect class="cls-1" x="948.97" y="18.25" width="8.35" height="8.35" transform="translate(-.18 9.98) rotate(-.6)"/><rect class="cls-1" x="957.33" y="18.16" width="8.35" height="8.35" transform="translate(-.18 10.06) rotate(-.6)"/><rect class="cls-1" x="957.24" y="9.81" width="8.35" height="8.35" transform="translate(-.09 10.06) rotate(-.6)"/><rect class="cls-1" x="965.59" y="9.72" width="8.35" height="8.35" transform="translate(-.09 10.15) rotate(-.6)"/><rect class="cls-1" x="957.41" y="26.52" width="8.35" height="8.35" transform="translate(-.27 10.06) rotate(-.6)"/><rect class="cls-1" x="965.77" y="26.43" width="8.35" height="8.35" transform="translate(-.27 10.15) rotate(-.6)"/><rect class="cls-1" x="965.85" y="34.78" width="8.35" height="8.35" transform="translate(-.35 10.15) rotate(-.6)"/><rect class="cls-1" x="965.5" y="1.37" width="8.35" height="8.35" transform="translate(0 10.15) rotate(-.6)"/><rect class="cls-1" x="982.39" y="17.9" width="8.35" height="8.35" transform="translate(1973.31 33.83) rotate(179.4)"/><rect class="cls-1" x="974.03" y="17.99" width="8.35" height="8.35" transform="translate(1956.6 34.09) rotate(179.4)"/><rect class="cls-1" x="973.95" y="9.64" width="8.35" height="8.35" transform="translate(1956.34 17.39) rotate(179.4)"/><rect class="cls-1" x="974.12" y="26.34" width="8.35" height="8.35" transform="translate(1956.86 50.8) rotate(179.4)"/><rect class="cls-1" x="982.74" y="51.32" width="8.35" height="8.35" transform="translate(-.53 10.33) rotate(-.6)"/><rect class="cls-1" x="991.09" y="51.23" width="8.35" height="8.35" transform="translate(-.53 10.42) rotate(-.6)"/><rect class="cls-1" x="991" y="42.88" width="8.35" height="8.35" transform="translate(-.44 10.42) rotate(-.6)"/><rect class="cls-1" x="999.36" y="42.79" width="8.35" height="8.35" transform="translate(-.44 10.5) rotate(-.6)"/><rect class="cls-1" x="991.18" y="59.58" width="8.35" height="8.35" transform="translate(-.61 10.42) rotate(-.6)"/><rect class="cls-1" x="999.53" y="59.5" width="8.35" height="8.35" transform="translate(-.61 10.51) rotate(-.6)"/><rect class="cls-1" x="999.62" y="67.85" width="8.35" height="8.35" transform="translate(-.7 10.51) rotate(-.6)"/><rect class="cls-1" x="999.27" y="34.43" width="8.35" height="8.35" transform="translate(-.35 10.5) rotate(-.6)"/><rect class="cls-1" x="1016.15" y="50.97" width="8.35" height="8.35" transform="translate(2041.18 99.61) rotate(179.4)"/><rect class="cls-1" x="1007.8" y="51.05" width="8.35" height="8.35" transform="translate(2024.47 99.87) rotate(179.4)"/><rect class="cls-1" x="1007.71" y="42.7" width="8.35" height="8.35" transform="translate(2024.21 83.16) rotate(179.4)"/><rect class="cls-1" x="1007.89" y="59.41" width="8.35" height="8.35" transform="translate(2024.73 116.58) rotate(179.4)"/><rect class="cls-1" x="949.67" y="85.08" width="8.35" height="8.35" transform="translate(-.88 9.99) rotate(-.6)"/><rect class="cls-1" x="958.03" y="84.99" width="8.35" height="8.35" transform="translate(-.88 10.07) rotate(-.6)"/><rect class="cls-1" x="957.94" y="76.64" width="8.35" height="8.35" transform="translate(-.79 10.07) rotate(-.6)"/><rect class="cls-1" x="966.29" y="76.55" width="8.35" height="8.35" transform="translate(-.79 10.16) rotate(-.6)"/><rect class="cls-1" x="958.11" y="93.35" width="8.35" height="8.35" transform="translate(-.97 10.08) rotate(-.6)"/><rect class="cls-1" x="966.47" y="93.26" width="8.35" height="8.35" transform="translate(-.97 10.16) rotate(-.6)"/><rect class="cls-1" x="966.55" y="101.61" width="8.35" height="8.35" transform="translate(-1.05 10.16) rotate(-.6)"/><rect class="cls-1" x="966.2" y="68.2" width="8.35" height="8.35" transform="translate(-.7 10.16) rotate(-.6)"/><rect class="cls-1" x="983.09" y="84.73" width="8.35" height="8.35" transform="translate(1975.4 167.48) rotate(179.4)"/><rect class="cls-1" x="974.73" y="84.82" width="8.35" height="8.35" transform="translate(1958.7 167.74) rotate(179.4)"/><rect class="cls-1" x="974.65" y="76.47" width="8.35" height="8.35" transform="translate(1958.43 151.04) rotate(179.4)"/><rect class="cls-1" x="974.82" y="93.17" width="8.35" height="8.35" transform="translate(1958.96 184.45) rotate(179.4)"/><rect class="cls-1" x="957.59" y="43.22" width="8.35" height="8.35" transform="translate(-.44 10.07) rotate(-.6)"/><rect class="cls-1" x="974.3" y="43.05" width="8.35" height="8.35" transform="translate(-.44 10.24) rotate(-.6)"/><rect class="cls-1" x="974.47" y="59.76" width="8.35" height="8.35" transform="translate(-.62 10.24) rotate(-.6)"/><rect class="cls-1" x="957.76" y="59.93" width="8.35" height="8.35" transform="translate(-.62 10.07) rotate(-.6)"/><rect class="cls-1" x="966.03" y="51.49" width="8.35" height="8.35" transform="translate(-.53 10.16) rotate(-.6)"/><rect class="cls-1" x="949.15" y="34.96" width="8.35" height="8.35" transform="translate(-.36 9.98) rotate(-.6)"/><rect class="cls-1" x="940.71" y="26.69" width="8.35" height="8.35" transform="translate(-.27 9.89) rotate(-.6)"/><rect class="cls-1" x="932.26" y="18.43" width="8.35" height="8.35" transform="translate(-.19 9.8) rotate(-.6)"/><rect class="cls-1" x="923.82" y="10.16" width="8.35" height="8.35" transform="translate(-.1 9.71) rotate(-.6)"/><rect class="cls-1" x="915.38" y="1.89" width="8.35" height="8.35" transform="translate(-.01 9.62) rotate(-.6)"/><rect class="cls-1" x="1016.68" y="101.09" width="8.35" height="8.35" transform="translate(-1.05 10.69) rotate(-.6)"/><rect class="cls-1" x="1008.24" y="92.82" width="8.35" height="8.35" transform="translate(-.96 10.6) rotate(-.6)"/><rect class="cls-1" x="999.79" y="84.56" width="8.35" height="8.35" transform="translate(-.87 10.51) rotate(-.6)"/><rect class="cls-1" x="991.35" y="76.29" width="8.35" height="8.35" transform="translate(-.79 10.42) rotate(-.6)"/><rect class="cls-1" x="982.91" y="68.02" width="8.35" height="8.35" transform="translate(-.7 10.33) rotate(-.6)"/><rect class="cls-1" x="1015.63" y=".84" width="8.35" height="8.35" transform="translate(1025.46 1024.82) rotate(-90.6)"/><rect class="cls-1" x="1007.36" y="9.29" width="8.35" height="8.35" transform="translate(1008.66 1025.09) rotate(-90.6)"/><rect class="cls-1" x="999.09" y="17.73" width="8.35" height="8.35" transform="translate(991.87 1025.35) rotate(-90.6)"/><rect class="cls-1" x="990.83" y="26.17" width="8.35" height="8.35" transform="translate(975.07 1025.61) rotate(-90.6)"/><rect class="cls-1" x="982.56" y="34.61" width="8.35" height="8.35" transform="translate(958.28 1025.88) rotate(-90.6)"/><rect class="cls-1" x="949.5" y="68.37" width="8.35" height="8.35" transform="translate(891.11 1026.93) rotate(-90.6)"/><rect class="cls-1" x="941.23" y="76.81" width="8.35" height="8.35" transform="translate(874.31 1027.2) rotate(-90.6)"/><rect class="cls-1" x="932.96" y="85.26" width="8.35" height="8.35" transform="translate(857.52 1027.46) rotate(-90.6)"/><rect class="cls-1" x="924.7" y="93.7" width="8.35" height="8.35" transform="translate(840.73 1027.72) rotate(-90.6)"/><rect class="cls-1" x="916.43" y="102.14" width="8.35" height="8.35" transform="translate(823.93 1027.99) rotate(-90.6)"/><rect class="cls-1" x="1030.32" y="51.62" width="8.35" height="8.35" transform="translate(-.53 10.83) rotate(-.6)"/><rect class="cls-1" x="1038.68" y="51.53" width="8.35" height="8.35" transform="translate(-.53 10.92) rotate(-.6)"/><rect class="cls-1" x="1038.59" y="43.17" width="8.35" height="8.35" transform="translate(-.44 10.91) rotate(-.6)"/><rect class="cls-1" x="1046.94" y="43.09" width="8.35" height="8.35" transform="translate(-.44 11) rotate(-.6)"/><rect class="cls-1" x="1038.77" y="59.88" width="8.35" height="8.35" transform="translate(-.61 10.92) rotate(-.6)"/><rect class="cls-1" x="1047.12" y="59.79" width="8.35" height="8.35" transform="translate(-.61 11) rotate(-.6)"/><rect class="cls-1" x="1047.21" y="68.15" width="8.35" height="8.35" transform="translate(-.7 11.01) rotate(-.6)"/><rect class="cls-1" x="1046.86" y="34.73" width="8.35" height="8.35" transform="translate(-.35 11) rotate(-.6)"/><rect class="cls-1" x="1063.74" y="51.27" width="8.35" height="8.35" transform="translate(2136.35 99.71) rotate(179.4)"/><rect class="cls-1" x="1055.39" y="51.35" width="8.35" height="8.35" transform="translate(2119.65 99.97) rotate(179.4)"/><rect class="cls-1" x="1055.3" y="43" width="8.35" height="8.35" transform="translate(2119.39 83.26) rotate(179.4)"/><rect class="cls-1" x="1055.47" y="59.71" width="8.35" height="8.35" transform="translate(2119.91 116.68) rotate(179.4)"/><rect class="cls-1" x="1063.39" y="17.85" width="8.35" height="8.35" transform="translate(-.17 11.17) rotate(-.6)"/><rect class="cls-1" x="1071.74" y="17.76" width="8.35" height="8.35" transform="translate(-.17 11.26) rotate(-.6)"/><rect class="cls-1" x="1071.66" y="9.41" width="8.35" height="8.35" transform="translate(-.08 11.26) rotate(-.6)"/><rect class="cls-1" x="1080.01" y="9.32" width="8.35" height="8.35" transform="translate(-.08 11.35) rotate(-.6)"/><rect class="cls-1" x="1071.83" y="26.12" width="8.35" height="8.35" transform="translate(-.26 11.26) rotate(-.6)"/><rect class="cls-1" x="1080.18" y="26.03" width="8.35" height="8.35" transform="translate(-.26 11.35) rotate(-.6)"/><rect class="cls-1" x="1080.27" y="34.38" width="8.35" height="8.35" transform="translate(-.34 11.35) rotate(-.6)"/><rect class="cls-1" x="1079.92" y=".97" width="8.35" height="8.35" transform="translate(0 11.34) rotate(-.6)"/><rect class="cls-1" x="1096.8" y="17.5" width="8.35" height="8.35" transform="translate(2202.13 31.83) rotate(179.4)"/><rect class="cls-1" x="1088.45" y="17.59" width="8.35" height="8.35" transform="translate(2185.42 32.1) rotate(179.4)"/><rect class="cls-1" x="1088.36" y="9.23" width="8.35" height="8.35" transform="translate(2185.16 15.39) rotate(179.4)"/><rect class="cls-1" x="1088.54" y="25.94" width="8.35" height="8.35" transform="translate(2185.69 48.8) rotate(179.4)"/><rect class="cls-1" x="1097.15" y="50.92" width="8.35" height="8.35" transform="translate(-.52 11.53) rotate(-.6)"/><rect class="cls-1" x="1105.51" y="50.83" width="8.35" height="8.35" transform="translate(-.51 11.62) rotate(-.6)"/><rect class="cls-1" x="1105.42" y="42.47" width="8.35" height="8.35" transform="translate(-.43 11.61) rotate(-.6)"/><rect class="cls-1" x="1113.77" y="42.39" width="8.35" height="8.35" transform="translate(-.43 11.7) rotate(-.6)"/><rect class="cls-1" x="1105.6" y="59.18" width="8.35" height="8.35" transform="translate(-.6 11.62) rotate(-.6)"/><rect class="cls-1" x="1113.95" y="59.09" width="8.35" height="8.35" transform="translate(-.6 11.7) rotate(-.6)"/><rect class="cls-1" x="1114.04" y="67.45" width="8.35" height="8.35" transform="translate(-.69 11.71) rotate(-.6)"/><rect class="cls-1" x="1113.69" y="34.03" width="8.35" height="8.35" transform="translate(-.34 11.7) rotate(-.6)"/><rect class="cls-1" x="1130.57" y="50.57" width="8.35" height="8.35" transform="translate(2270 97.61) rotate(179.4)"/><rect class="cls-1" x="1122.22" y="50.65" width="8.35" height="8.35" transform="translate(2253.3 97.87) rotate(179.4)"/><rect class="cls-1" x="1122.13" y="42.3" width="8.35" height="8.35" transform="translate(2253.03 81.17) rotate(179.4)"/><rect class="cls-1" x="1122.3" y="59.01" width="8.35" height="8.35" transform="translate(2253.56 114.58) rotate(179.4)"/><rect class="cls-1" x="1064.09" y="84.68" width="8.35" height="8.35" transform="translate(-.87 11.18) rotate(-.6)"/><rect class="cls-1" x="1072.44" y="84.59" width="8.35" height="8.35" transform="translate(-.87 11.27) rotate(-.6)"/><rect class="cls-1" x="1072.36" y="76.24" width="8.35" height="8.35" transform="translate(-.78 11.27) rotate(-.6)"/><rect class="cls-1" x="1080.71" y="76.15" width="8.35" height="8.35" transform="translate(-.78 11.36) rotate(-.6)"/><rect class="cls-1" x="1072.53" y="92.95" width="8.35" height="8.35" transform="translate(-.96 11.27) rotate(-.6)"/><rect class="cls-1" x="1080.88" y="92.86" width="8.35" height="8.35" transform="translate(-.96 11.36) rotate(-.6)"/><rect class="cls-1" x="1080.97" y="101.21" width="8.35" height="8.35" transform="translate(-1.04 11.36) rotate(-.6)"/><rect class="cls-1" x="1080.62" y="67.8" width="8.35" height="8.35" transform="translate(-.69 11.36) rotate(-.6)"/><rect class="cls-1" x="1097.5" y="84.33" width="8.35" height="8.35" transform="translate(2204.23 165.48) rotate(179.4)"/><rect class="cls-1" x="1089.15" y="84.42" width="8.35" height="8.35" transform="translate(2187.52 165.75) rotate(179.4)"/><rect class="cls-1" x="1089.06" y="76.06" width="8.35" height="8.35" transform="translate(2187.26 149.04) rotate(179.4)"/><rect class="cls-1" x="1089.24" y="92.77" width="8.35" height="8.35" transform="translate(2187.78 182.45) rotate(179.4)"/><rect class="cls-1" x="1072.01" y="42.82" width="8.35" height="8.35" transform="translate(-.43 11.26) rotate(-.6)"/><rect class="cls-1" x="1088.71" y="42.65" width="8.35" height="8.35" transform="translate(-.43 11.44) rotate(-.6)"/><rect class="cls-1" x="1088.89" y="59.36" width="8.35" height="8.35" transform="translate(-.61 11.44) rotate(-.6)"/><rect class="cls-1" x="1072.18" y="59.53" width="8.35" height="8.35" transform="translate(-.61 11.27) rotate(-.6)"/><rect class="cls-1" x="1080.45" y="51.09" width="8.35" height="8.35" transform="translate(-.52 11.35) rotate(-.6)"/><rect class="cls-1" x="1063.56" y="34.56" width="8.35" height="8.35" transform="translate(-.35 11.18) rotate(-.6)"/><rect class="cls-1" x="1055.12" y="26.29" width="8.35" height="8.35" transform="translate(-.26 11.09) rotate(-.6)"/><rect class="cls-1" x="1046.68" y="18.03" width="8.35" height="8.35" transform="translate(-.17 11) rotate(-.6)"/><rect class="cls-1" x="1038.24" y="9.76" width="8.35" height="8.35" transform="translate(-.09 10.91) rotate(-.6)"/><rect class="cls-1" x="1029.8" y="1.49" width="8.35" height="8.35" transform="translate(0 10.82) rotate(-.6)"/><rect class="cls-1" x="1131.09" y="100.69" width="8.35" height="8.35" transform="translate(-1.04 11.89) rotate(-.6)"/><rect class="cls-1" x="1122.65" y="92.42" width="8.35" height="8.35" transform="translate(-.95 11.8) rotate(-.6)"/><rect class="cls-1" x="1114.21" y="84.16" width="8.35" height="8.35" transform="translate(-.86 11.71) rotate(-.6)"/><rect class="cls-1" x="1105.77" y="75.89" width="8.35" height="8.35" transform="translate(-.78 11.62) rotate(-.6)"/><rect class="cls-1" x="1097.33" y="67.62" width="8.35" height="8.35" transform="translate(-.69 11.53) rotate(-.6)"/><rect class="cls-1" x="1130.04" y=".44" width="8.35" height="8.35" transform="translate(1141.47 1138.83) rotate(-90.6)"/><rect class="cls-1" x="1121.78" y="8.89" width="8.35" height="8.35" transform="translate(1124.68 1139.09) rotate(-90.6)"/><rect class="cls-1" x="1113.51" y="17.33" width="8.35" height="8.35" transform="translate(1107.88 1139.36) rotate(-90.6)"/><rect class="cls-1" x="1105.25" y="25.77" width="8.35" height="8.35" transform="translate(1091.09 1139.62) rotate(-90.6)"/><rect class="cls-1" x="1096.98" y="34.21" width="8.35" height="8.35" transform="translate(1074.3 1139.88) rotate(-90.6)"/><rect class="cls-1" x="1063.91" y="67.97" width="8.35" height="8.35" transform="translate(1007.12 1140.94) rotate(-90.6)"/><rect class="cls-1" x="1055.65" y="76.41" width="8.35" height="8.35" transform="translate(990.33 1141.2) rotate(-90.6)"/><rect class="cls-1" x="1047.38" y="84.86" width="8.35" height="8.35" transform="translate(973.53 1141.47) rotate(-90.6)"/><rect class="cls-1" x="1039.11" y="93.3" width="8.35" height="8.35" transform="translate(956.74 1141.73) rotate(-90.6)"/><rect class="cls-1" x="1030.85" y="101.74" width="8.35" height="8.35" transform="translate(939.95 1141.99) rotate(-90.6)"/><rect class="cls-1" x="1144.74" y="51.22" width="8.35" height="8.35" transform="translate(-.52 12.03) rotate(-.6)"/><rect class="cls-1" x="1153.1" y="51.13" width="8.35" height="8.35" transform="translate(-.52 12.11) rotate(-.6)"/><rect class="cls-1" x="1153.01" y="42.77" width="8.35" height="8.35" transform="translate(-.43 12.11) rotate(-.6)"/><rect class="cls-1" x="1161.36" y="42.69" width="8.35" height="8.35" transform="translate(-.43 12.2) rotate(-.6)"/><rect class="cls-1" x="1153.18" y="59.48" width="8.35" height="8.35" transform="translate(-.6 12.11) rotate(-.6)"/><rect class="cls-1" x="1161.54" y="59.39" width="8.35" height="8.35" transform="translate(-.6 12.2) rotate(-.6)"/><rect class="cls-1" x="1161.62" y="67.75" width="8.35" height="8.35" transform="translate(-.69 12.2) rotate(-.6)"/><rect class="cls-1" x="1161.27" y="34.33" width="8.35" height="8.35" transform="translate(-.34 12.2) rotate(-.6)"/><rect class="cls-1" x="1178.16" y="50.87" width="8.35" height="8.35" transform="translate(2365.18 97.71) rotate(179.4)"/><rect class="cls-1" x="1169.8" y="50.95" width="8.35" height="8.35" transform="translate(2348.47 97.97) rotate(179.4)"/><rect class="cls-1" x="1169.72" y="42.6" width="8.35" height="8.35" transform="translate(2348.21 81.27) rotate(179.4)"/><rect class="cls-1" x="1169.89" y="59.31" width="8.35" height="8.35" transform="translate(2348.73 114.68) rotate(179.4)"/><rect class="cls-1" x="1177.81" y="17.45" width="8.35" height="8.35" transform="translate(-.16 12.37) rotate(-.6)"/><rect class="cls-1" x="1186.16" y="17.36" width="8.35" height="8.35" transform="translate(-.16 12.46) rotate(-.6)"/><rect class="cls-1" x="1186.07" y="9.01" width="8.35" height="8.35" transform="translate(-.07 12.46) rotate(-.6)"/><rect class="cls-1" x="1194.43" y="8.92" width="8.35" height="8.35" transform="translate(-.07 12.54) rotate(-.6)"/><rect class="cls-1" x="1186.25" y="25.72" width="8.35" height="8.35" transform="translate(-.25 12.46) rotate(-.6)"/><rect class="cls-1" x="1194.6" y="25.63" width="8.35" height="8.35" transform="translate(-.25 12.55) rotate(-.6)"/><rect class="cls-1" x="1194.69" y="33.98" width="8.35" height="8.35" transform="translate(-.33 12.55) rotate(-.6)"/><rect class="cls-1" x="1194.34" y=".57" width="8.35" height="8.35" transform="translate(.02 12.54) rotate(-.6)"/><rect class="cls-1" x="1211.22" y="17.1" width="8.35" height="8.35" transform="translate(2430.95 29.84) rotate(179.4)"/><rect class="cls-1" x="1202.87" y="17.19" width="8.35" height="8.35" transform="translate(2414.25 30.1) rotate(179.4)"/><rect class="cls-1" x="1202.78" y="8.83" width="8.35" height="8.35" transform="translate(2413.99 13.39) rotate(179.4)"/><rect class="cls-1" x="1202.96" y="25.54" width="8.35" height="8.35" transform="translate(2414.51 46.8) rotate(179.4)"/><rect class="cls-1" x="1211.57" y="50.52" width="8.35" height="8.35" transform="translate(-.51 12.73) rotate(-.6)"/><rect class="cls-1" x="1219.93" y="50.43" width="8.35" height="8.35" transform="translate(-.5 12.81) rotate(-.6)"/><rect class="cls-1" x="1219.84" y="42.07" width="8.35" height="8.35" transform="translate(-.42 12.81) rotate(-.6)"/><rect class="cls-1" x="1228.19" y="41.99" width="8.35" height="8.35" transform="translate(-.42 12.9) rotate(-.6)"/><rect class="cls-1" x="1220.01" y="58.78" width="8.35" height="8.35" transform="translate(-.59 12.81) rotate(-.6)"/><rect class="cls-1" x="1228.37" y="58.69" width="8.35" height="8.35" transform="translate(-.59 12.9) rotate(-.6)"/><rect class="cls-1" x="1228.45" y="67.05" width="8.35" height="8.35" transform="translate(-.68 12.9) rotate(-.6)"/><rect class="cls-1" x="1228.1" y="33.63" width="8.35" height="8.35" transform="translate(-.33 12.9) rotate(-.6)"/><rect class="cls-1" x="1244.99" y="50.17" width="8.35" height="8.35" transform="translate(2498.83 95.61) rotate(179.4)"/><rect class="cls-1" x="1236.63" y="50.25" width="8.35" height="8.35" transform="translate(2482.12 95.87) rotate(179.4)"/><rect class="cls-1" x="1236.55" y="41.9" width="8.35" height="8.35" transform="translate(2481.86 79.17) rotate(179.4)"/><rect class="cls-1" x="1236.72" y="58.61" width="8.35" height="8.35" transform="translate(2482.38 112.58) rotate(179.4)"/><rect class="cls-1" x="1178.51" y="84.28" width="8.35" height="8.35" transform="translate(-.86 12.38) rotate(-.6)"/><rect class="cls-1" x="1186.86" y="84.19" width="8.35" height="8.35" transform="translate(-.86 12.47) rotate(-.6)"/><rect class="cls-1" x="1186.77" y="75.84" width="8.35" height="8.35" transform="translate(-.77 12.47) rotate(-.6)"/><rect class="cls-1" x="1195.13" y="75.75" width="8.35" height="8.35" transform="translate(-.77 12.55) rotate(-.6)"/><rect class="cls-1" x="1186.95" y="92.55" width="8.35" height="8.35" transform="translate(-.95 12.47) rotate(-.6)"/><rect class="cls-1" x="1195.3" y="92.46" width="8.35" height="8.35" transform="translate(-.95 12.56) rotate(-.6)"/><rect class="cls-1" x="1195.39" y="100.81" width="8.35" height="8.35" transform="translate(-1.03 12.56) rotate(-.6)"/><rect class="cls-1" x="1195.04" y="67.4" width="8.35" height="8.35" transform="translate(-.68 12.55) rotate(-.6)"/><rect class="cls-1" x="1211.92" y="83.93" width="8.35" height="8.35" transform="translate(2433.05 163.48) rotate(179.4)"/><rect class="cls-1" x="1203.57" y="84.02" width="8.35" height="8.35" transform="translate(2416.35 163.75) rotate(179.4)"/><rect class="cls-1" x="1203.48" y="75.66" width="8.35" height="8.35" transform="translate(2416.08 147.04) rotate(179.4)"/><rect class="cls-1" x="1203.65" y="92.37" width="8.35" height="8.35" transform="translate(2416.61 180.45) rotate(179.4)"/><rect class="cls-1" x="1186.42" y="42.42" width="8.35" height="8.35" transform="translate(-.42 12.46) rotate(-.6)"/><rect class="cls-1" x="1203.13" y="42.25" width="8.35" height="8.35" transform="translate(-.42 12.64) rotate(-.6)"/><rect class="cls-1" x="1203.31" y="58.96" width="8.35" height="8.35" transform="translate(-.59 12.64) rotate(-.6)"/><rect class="cls-1" x="1186.6" y="59.13" width="8.35" height="8.35" transform="translate(-.6 12.46) rotate(-.6)"/><rect class="cls-1" x="1194.86" y="50.69" width="8.35" height="8.35" transform="translate(-.51 12.55) rotate(-.6)"/><rect class="cls-1" x="1177.98" y="34.16" width="8.35" height="8.35" transform="translate(-.34 12.37) rotate(-.6)"/><rect class="cls-1" x="1169.54" y="25.89" width="8.35" height="8.35" transform="translate(-.25 12.28) rotate(-.6)"/><rect class="cls-1" x="1161.1" y="17.63" width="8.35" height="8.35" transform="translate(-.16 12.2) rotate(-.6)"/><rect class="cls-1" x="1152.66" y="9.36" width="8.35" height="8.35" transform="translate(-.08 12.11) rotate(-.6)"/><rect class="cls-1" x="1144.22" y="1.09" width="8.35" height="8.35" transform="translate(0 12.02) rotate(-.6)"/><rect class="cls-1" x="1245.51" y="100.29" width="8.35" height="8.35" transform="translate(-1.02 13.08) rotate(-.6)"/><rect class="cls-1" x="1237.07" y="92.02" width="8.35" height="8.35" transform="translate(-.94 12.99) rotate(-.6)"/><rect class="cls-1" x="1228.63" y="83.76" width="8.35" height="8.35" transform="translate(-.85 12.91) rotate(-.6)"/><rect class="cls-1" x="1220.19" y="75.49" width="8.35" height="8.35" transform="translate(-.77 12.82) rotate(-.6)"/><rect class="cls-1" x="1211.75" y="67.22" width="8.35" height="8.35" transform="translate(-.68 12.73) rotate(-.6)"/><rect class="cls-1" x="1244.46" y=".04" width="8.35" height="8.35" transform="translate(1257.49 1252.84) rotate(-90.6)"/><rect class="cls-1" x="1236.2" y="8.48" width="8.35" height="8.35" transform="translate(1240.69 1253.1) rotate(-90.6)"/><rect class="cls-1" x="1227.93" y="16.93" width="8.35" height="8.35" transform="translate(1223.9 1253.36) rotate(-90.6)"/><rect class="cls-1" x="1219.66" y="25.37" width="8.35" height="8.35" transform="translate(1207.1 1253.63) rotate(-90.6)"/><rect class="cls-1" x="1211.4" y="33.81" width="8.35" height="8.35" transform="translate(1190.31 1253.89) rotate(-90.6)"/><rect class="cls-1" x="1178.33" y="67.57" width="8.35" height="8.35" transform="translate(1123.14 1254.94) rotate(-90.6)"/><rect class="cls-1" x="1170.06" y="76.01" width="8.35" height="8.35" transform="translate(1106.34 1255.21) rotate(-90.6)"/><rect class="cls-1" x="1161.8" y="84.46" width="8.35" height="8.35" transform="translate(1089.55 1255.47) rotate(-90.6)"/><rect class="cls-1" x="1153.53" y="92.9" width="8.35" height="8.35" transform="translate(1072.76 1255.74) rotate(-90.6)"/><rect class="cls-1" x="1145.27" y="101.34" width="8.35" height="8.35" transform="translate(1055.96 1256) rotate(-90.6)"/><rect class="cls-1" x="801.49" y="52.42" width="8.35" height="8.35" transform="translate(-.55 8.43) rotate(-.6)"/><rect class="cls-1" x="809.84" y="52.33" width="8.35" height="8.35" transform="translate(-.55 8.52) rotate(-.6)"/><rect class="cls-1" x="809.76" y="43.98" width="8.35" height="8.35" transform="translate(-.46 8.52) rotate(-.6)"/><rect class="cls-1" x="818.11" y="43.89" width="8.35" height="8.35" transform="translate(-.46 8.61) rotate(-.6)"/><rect class="cls-1" x="809.93" y="60.68" width="8.35" height="8.35" transform="translate(-.63 8.52) rotate(-.6)"/><rect class="cls-1" x="818.28" y="60.6" width="8.35" height="8.35" transform="translate(-.63 8.61) rotate(-.6)"/><rect class="cls-1" x="818.37" y="68.95" width="8.35" height="8.35" transform="translate(-.72 8.61) rotate(-.6)"/><rect class="cls-1" x="818.02" y="35.53" width="8.35" height="8.35" transform="translate(-.37 8.61) rotate(-.6)"/><rect class="cls-1" x="834.9" y="52.07" width="8.35" height="8.35" transform="translate(1678.71 103.7) rotate(179.4)"/><rect class="cls-1" x="826.55" y="52.15" width="8.35" height="8.35" transform="translate(1662 103.97) rotate(179.4)"/><rect class="cls-1" x="826.46" y="43.8" width="8.35" height="8.35" transform="translate(1661.74 87.26) rotate(179.4)"/><rect class="cls-1" x="826.64" y="60.51" width="8.35" height="8.35" transform="translate(1662.26 120.67) rotate(179.4)"/><rect class="cls-1" x="834.55" y="18.65" width="8.35" height="8.35" transform="translate(-.19 8.78) rotate(-.6)"/><rect class="cls-1" x="842.91" y="18.56" width="8.35" height="8.35" transform="translate(-.19 8.87) rotate(-.6)"/><rect class="cls-1" x="842.82" y="10.21" width="8.35" height="8.35" transform="translate(-.1 8.86) rotate(-.6)"/><rect class="cls-1" x="851.17" y="10.12" width="8.35" height="8.35" transform="translate(-.1 8.95) rotate(-.6)"/><rect class="cls-1" x="843" y="26.92" width="8.35" height="8.35" transform="translate(-.28 8.87) rotate(-.6)"/><rect class="cls-1" x="851.35" y="26.83" width="8.35" height="8.35" transform="translate(-.28 8.95) rotate(-.6)"/><rect class="cls-1" x="851.44" y="35.18" width="8.35" height="8.35" transform="translate(-.37 8.96) rotate(-.6)"/><rect class="cls-1" x="851.09" y="1.77" width="8.35" height="8.35" transform="translate(-.02 8.95) rotate(-.6)"/><rect class="cls-1" x="867.97" y="18.3" width="8.35" height="8.35" transform="translate(1744.48 35.83) rotate(179.4)"/><rect class="cls-1" x="859.62" y="18.39" width="8.35" height="8.35" transform="translate(1727.77 36.09) rotate(179.4)"/><rect class="cls-1" x="859.53" y="10.04" width="8.35" height="8.35" transform="translate(1727.51 19.39) rotate(179.4)"/><rect class="cls-1" x="859.7" y="26.74" width="8.35" height="8.35" transform="translate(1728.04 52.8) rotate(179.4)"/><rect class="cls-1" x="868.32" y="51.72" width="8.35" height="8.35" transform="translate(-.54 9.13) rotate(-.6)"/><rect class="cls-1" x="876.67" y="51.63" width="8.35" height="8.35" transform="translate(-.54 9.22) rotate(-.6)"/><rect class="cls-1" x="876.59" y="43.28" width="8.35" height="8.35" transform="translate(-.45 9.22) rotate(-.6)"/><rect class="cls-1" x="884.94" y="43.19" width="8.35" height="8.35" transform="translate(-.45 9.31) rotate(-.6)"/><rect class="cls-1" x="876.76" y="59.98" width="8.35" height="8.35" transform="translate(-.62 9.22) rotate(-.6)"/><rect class="cls-1" x="885.11" y="59.9" width="8.35" height="8.35" transform="translate(-.62 9.31) rotate(-.6)"/><rect class="cls-1" x="885.2" y="68.25" width="8.35" height="8.35" transform="translate(-.71 9.31) rotate(-.6)"/><rect class="cls-1" x="884.85" y="34.83" width="8.35" height="8.35" transform="translate(-.36 9.31) rotate(-.6)"/><rect class="cls-1" x="901.73" y="51.37" width="8.35" height="8.35" transform="translate(1812.35 101.61) rotate(179.4)"/><rect class="cls-1" x="893.38" y="51.45" width="8.35" height="8.35" transform="translate(1795.65 101.87) rotate(179.4)"/><rect class="cls-1" x="893.29" y="43.1" width="8.35" height="8.35" transform="translate(1795.39 85.16) rotate(179.4)"/><rect class="cls-1" x="893.47" y="59.81" width="8.35" height="8.35" transform="translate(1795.91 118.57) rotate(179.4)"/><rect class="cls-1" x="835.25" y="85.48" width="8.35" height="8.35" transform="translate(-.89 8.79) rotate(-.6)"/><rect class="cls-1" x="843.61" y="85.39" width="8.35" height="8.35" transform="translate(-.89 8.88) rotate(-.6)"/><rect class="cls-1" x="843.52" y="77.04" width="8.35" height="8.35" transform="translate(-.8 8.88) rotate(-.6)"/><rect class="cls-1" x="851.87" y="76.95" width="8.35" height="8.35" transform="translate(-.8 8.96) rotate(-.6)"/><rect class="cls-1" x="843.7" y="93.75" width="8.35" height="8.35" transform="translate(-.98 8.88) rotate(-.6)"/><rect class="cls-1" x="852.05" y="93.66" width="8.35" height="8.35" transform="translate(-.98 8.97) rotate(-.6)"/><rect class="cls-1" x="852.14" y="102.01" width="8.35" height="8.35" transform="translate(-1.06 8.97) rotate(-.6)"/><rect class="cls-1" x="851.79" y="68.6" width="8.35" height="8.35" transform="translate(-.71 8.96) rotate(-.6)"/><rect class="cls-1" x="868.67" y="85.13" width="8.35" height="8.35" transform="translate(1746.58 169.48) rotate(179.4)"/><rect class="cls-1" x="860.32" y="85.22" width="8.35" height="8.35" transform="translate(1729.87 169.74) rotate(179.4)"/><rect class="cls-1" x="860.23" y="76.87" width="8.35" height="8.35" transform="translate(1729.61 153.04) rotate(179.4)"/><rect class="cls-1" x="860.4" y="93.57" width="8.35" height="8.35" transform="translate(1730.14 186.45) rotate(179.4)"/><rect class="cls-1" x="843.17" y="43.63" width="8.35" height="8.35" transform="translate(-.45 8.87) rotate(-.6)"/><rect class="cls-1" x="859.88" y="43.45" width="8.35" height="8.35" transform="translate(-.45 9.04) rotate(-.6)"/><rect class="cls-1" x="860.05" y="60.16" width="8.35" height="8.35" transform="translate(-.63 9.05) rotate(-.6)"/><rect class="cls-1" x="843.35" y="60.33" width="8.35" height="8.35" transform="translate(-.63 8.87) rotate(-.6)"/><rect class="cls-1" x="851.61" y="51.89" width="8.35" height="8.35" transform="translate(-.54 8.96) rotate(-.6)"/><rect class="cls-1" x="834.73" y="35.36" width="8.35" height="8.35" transform="translate(-.37 8.78) rotate(-.6)"/><rect class="cls-1" x="826.29" y="27.09" width="8.35" height="8.35" transform="translate(-.28 8.69) rotate(-.6)"/><rect class="cls-1" x="817.85" y="18.83" width="8.35" height="8.35" transform="translate(-.2 8.6) rotate(-.6)"/><rect class="cls-1" x="809.41" y="10.56" width="8.35" height="8.35" transform="translate(-.11 8.51) rotate(-.6)"/><rect class="cls-1" x="800.96" y="2.29" width="8.35" height="8.35" transform="translate(-.02 8.43) rotate(-.6)"/><rect class="cls-1" x="902.26" y="101.49" width="8.35" height="8.35" transform="translate(-1.06 9.49) rotate(-.6)"/><rect class="cls-1" x="893.82" y="93.22" width="8.35" height="8.35" transform="translate(-.97 9.4) rotate(-.6)"/><rect class="cls-1" x="885.38" y="84.96" width="8.35" height="8.35" transform="translate(-.88 9.31) rotate(-.6)"/><rect class="cls-1" x="876.94" y="76.69" width="8.35" height="8.35" transform="translate(-.8 9.22) rotate(-.6)"/><rect class="cls-1" x="868.49" y="68.42" width="8.35" height="8.35" transform="translate(-.71 9.14) rotate(-.6)"/><rect class="cls-1" x="901.21" y="1.24" width="8.35" height="8.35" transform="translate(909.44 910.82) rotate(-90.6)"/><rect class="cls-1" x="892.94" y="9.69" width="8.35" height="8.35" transform="translate(892.65 911.08) rotate(-90.6)"/><rect class="cls-1" x="884.68" y="18.13" width="8.35" height="8.35" transform="translate(875.85 911.34) rotate(-90.6)"/><rect class="cls-1" x="876.41" y="26.57" width="8.35" height="8.35" transform="translate(859.06 911.61) rotate(-90.6)"/><rect class="cls-1" x="868.14" y="35.01" width="8.35" height="8.35" transform="translate(842.27 911.87) rotate(-90.6)"/><rect class="cls-1" x="835.08" y="68.77" width="8.35" height="8.35" transform="translate(775.09 912.92) rotate(-90.6)"/><rect class="cls-1" x="826.81" y="77.22" width="8.35" height="8.35" transform="translate(758.3 913.19) rotate(-90.6)"/><rect class="cls-1" x="818.55" y="85.66" width="8.35" height="8.35" transform="translate(741.5 913.45) rotate(-90.6)"/><rect class="cls-1" x="810.28" y="94.1" width="8.35" height="8.35" transform="translate(724.71 913.72) rotate(-90.6)"/><rect class="cls-1" x="802.01" y="102.54" width="8.35" height="8.35" transform="translate(707.92 913.98) rotate(-90.6)"/><rect class="cls-1" x="687.07" y="52.82" width="8.35" height="8.35" transform="translate(-.56 7.24) rotate(-.6)"/><rect class="cls-1" x="695.43" y="52.73" width="8.35" height="8.35" transform="translate(-.56 7.32) rotate(-.6)"/><rect class="cls-1" x="695.34" y="44.38" width="8.35" height="8.35" transform="translate(-.47 7.32) rotate(-.6)"/><rect class="cls-1" x="703.69" y="44.29" width="8.35" height="8.35" transform="translate(-.47 7.41) rotate(-.6)"/><rect class="cls-1" x="695.51" y="61.08" width="8.35" height="8.35" transform="translate(-.64 7.33) rotate(-.6)"/><rect class="cls-1" x="703.87" y="61" width="8.35" height="8.35" transform="translate(-.64 7.41) rotate(-.6)"/><rect class="cls-1" x="703.95" y="69.35" width="8.35" height="8.35" transform="translate(-.73 7.41) rotate(-.6)"/><rect class="cls-1" x="703.6" y="35.93" width="8.35" height="8.35" transform="translate(-.38 7.41) rotate(-.6)"/><rect class="cls-1" x="720.49" y="52.47" width="8.35" height="8.35" transform="translate(1449.88 105.7) rotate(179.4)"/><rect class="cls-1" x="712.13" y="52.55" width="8.35" height="8.35" transform="translate(1433.18 105.96) rotate(179.4)"/><rect class="cls-1" x="712.05" y="44.2" width="8.35" height="8.35" transform="translate(1432.91 89.26) rotate(179.4)"/><rect class="cls-1" x="712.22" y="60.91" width="8.35" height="8.35" transform="translate(1433.44 122.67) rotate(179.4)"/><rect class="cls-1" x="720.14" y="19.05" width="8.35" height="8.35" transform="translate(-.2 7.58) rotate(-.6)"/><rect class="cls-1" x="728.49" y="18.96" width="8.35" height="8.35" transform="translate(-.2 7.67) rotate(-.6)"/><rect class="cls-1" x="728.4" y="10.61" width="8.35" height="8.35" transform="translate(-.11 7.67) rotate(-.6)"/><rect class="cls-1" x="736.76" y="10.52" width="8.35" height="8.35" transform="translate(-.11 7.75) rotate(-.6)"/><rect class="cls-1" x="728.58" y="27.32" width="8.35" height="8.35" transform="translate(-.29 7.67) rotate(-.6)"/><rect class="cls-1" x="736.93" y="27.23" width="8.35" height="8.35" transform="translate(-.29 7.76) rotate(-.6)"/><rect class="cls-1" x="737.02" y="35.58" width="8.35" height="8.35" transform="translate(-.38 7.76) rotate(-.6)"/><rect class="cls-1" x="736.67" y="2.17" width="8.35" height="8.35" transform="translate(-.03 7.75) rotate(-.6)"/><rect class="cls-1" x="753.55" y="18.7" width="8.35" height="8.35" transform="translate(1515.66 37.83) rotate(179.4)"/><rect class="cls-1" x="745.2" y="18.79" width="8.35" height="8.35" transform="translate(1498.95 38.09) rotate(179.4)"/><rect class="cls-1" x="745.11" y="10.44" width="8.35" height="8.35" transform="translate(1498.69 21.38) rotate(179.4)"/><rect class="cls-1" x="745.29" y="27.14" width="8.35" height="8.35" transform="translate(1499.21 54.8) rotate(179.4)"/><rect class="cls-1" x="753.9" y="52.12" width="8.35" height="8.35" transform="translate(-.55 7.94) rotate(-.6)"/><rect class="cls-1" x="762.26" y="52.03" width="8.35" height="8.35" transform="translate(-.55 8.02) rotate(-.6)"/><rect class="cls-1" x="762.17" y="43.68" width="8.35" height="8.35" transform="translate(-.46 8.02) rotate(-.6)"/><rect class="cls-1" x="770.52" y="43.59" width="8.35" height="8.35" transform="translate(-.46 8.11) rotate(-.6)"/><rect class="cls-1" x="762.34" y="60.38" width="8.35" height="8.35" transform="translate(-.63 8.02) rotate(-.6)"/><rect class="cls-1" x="770.7" y="60.3" width="8.35" height="8.35" transform="translate(-.63 8.11) rotate(-.6)"/><rect class="cls-1" x="770.78" y="68.65" width="8.35" height="8.35" transform="translate(-.72 8.11) rotate(-.6)"/><rect class="cls-1" x="770.43" y="35.23" width="8.35" height="8.35" transform="translate(-.37 8.11) rotate(-.6)"/><rect class="cls-1" x="787.32" y="51.77" width="8.35" height="8.35" transform="translate(1583.53 103.6) rotate(179.4)"/><rect class="cls-1" x="778.96" y="51.85" width="8.35" height="8.35" transform="translate(1566.82 103.87) rotate(179.4)"/><rect class="cls-1" x="778.88" y="43.5" width="8.35" height="8.35" transform="translate(1566.56 87.16) rotate(179.4)"/><rect class="cls-1" x="779.05" y="60.21" width="8.35" height="8.35" transform="translate(1567.09 120.57) rotate(179.4)"/><rect class="cls-1" x="720.84" y="85.88" width="8.35" height="8.35" transform="translate(-.9 7.59) rotate(-.6)"/><rect class="cls-1" x="729.19" y="85.79" width="8.35" height="8.35" transform="translate(-.9 7.68) rotate(-.6)"/><rect class="cls-1" x="729.1" y="77.44" width="8.35" height="8.35" transform="translate(-.81 7.68) rotate(-.6)"/><rect class="cls-1" x="737.46" y="77.35" width="8.35" height="8.35" transform="translate(-.81 7.77) rotate(-.6)"/><rect class="cls-1" x="729.28" y="94.15" width="8.35" height="8.35" transform="translate(-.99 7.68) rotate(-.6)"/><rect class="cls-1" x="737.63" y="94.06" width="8.35" height="8.35" transform="translate(-.99 7.77) rotate(-.6)"/><rect class="cls-1" x="737.72" y="102.41" width="8.35" height="8.35" transform="translate(-1.07 7.77) rotate(-.6)"/><rect class="cls-1" x="737.37" y="69" width="8.35" height="8.35" transform="translate(-.73 7.76) rotate(-.6)"/><rect class="cls-1" x="754.25" y="85.53" width="8.35" height="8.35" transform="translate(1517.75 171.48) rotate(179.4)"/><rect class="cls-1" x="745.9" y="85.62" width="8.35" height="8.35" transform="translate(1501.05 171.74) rotate(179.4)"/><rect class="cls-1" x="745.81" y="77.27" width="8.35" height="8.35" transform="translate(1500.79 155.03) rotate(179.4)"/><rect class="cls-1" x="745.99" y="93.97" width="8.35" height="8.35" transform="translate(1501.31 188.45) rotate(179.4)"/><rect class="cls-1" x="728.75" y="44.03" width="8.35" height="8.35" transform="translate(-.46 7.67) rotate(-.6)"/><rect class="cls-1" x="745.46" y="43.85" width="8.35" height="8.35" transform="translate(-.46 7.85) rotate(-.6)"/><rect class="cls-1" x="745.64" y="60.56" width="8.35" height="8.35" transform="translate(-.64 7.85) rotate(-.6)"/><rect class="cls-1" x="728.93" y="60.73" width="8.35" height="8.35" transform="translate(-.64 7.68) rotate(-.6)"/><rect class="cls-1" x="737.19" y="52.29" width="8.35" height="8.35" transform="translate(-.55 7.76) rotate(-.6)"/><rect class="cls-1" x="720.31" y="35.76" width="8.35" height="8.35" transform="translate(-.38 7.58) rotate(-.6)"/><rect class="cls-1" x="711.87" y="27.49" width="8.35" height="8.35" transform="translate(-.29 7.49) rotate(-.6)"/><rect class="cls-1" x="703.43" y="19.23" width="8.35" height="8.35" transform="translate(-.21 7.41) rotate(-.6)"/><rect class="cls-1" x="694.99" y="10.96" width="8.35" height="8.35" transform="translate(-.12 7.32) rotate(-.6)"/><rect class="cls-1" x="686.55" y="2.69" width="8.35" height="8.35" transform="translate(-.03 7.23) rotate(-.6)"/><rect class="cls-1" x="787.84" y="101.89" width="8.35" height="8.35" transform="translate(-1.07 8.29) rotate(-.6)"/><rect class="cls-1" x="779.4" y="93.62" width="8.35" height="8.35" transform="translate(-.98 8.21) rotate(-.6)"/><rect class="cls-1" x="770.96" y="85.36" width="8.35" height="8.35" transform="translate(-.89 8.12) rotate(-.6)"/><rect class="cls-1" x="762.52" y="77.09" width="8.35" height="8.35" transform="translate(-.81 8.03) rotate(-.6)"/><rect class="cls-1" x="754.08" y="68.82" width="8.35" height="8.35" transform="translate(-.72 7.94) rotate(-.6)"/><rect class="cls-1" x="786.79" y="1.65" width="8.35" height="8.35" transform="translate(793.43 796.81) rotate(-90.6)"/><rect class="cls-1" x="778.53" y="10.09" width="8.35" height="8.35" transform="translate(776.63 797.07) rotate(-90.6)"/><rect class="cls-1" x="770.26" y="18.53" width="8.35" height="8.35" transform="translate(759.84 797.34) rotate(-90.6)"/><rect class="cls-1" x="761.99" y="26.97" width="8.35" height="8.35" transform="translate(743.04 797.6) rotate(-90.6)"/><rect class="cls-1" x="753.73" y="35.41" width="8.35" height="8.35" transform="translate(726.25 797.86) rotate(-90.6)"/><rect class="cls-1" x="720.66" y="69.17" width="8.35" height="8.35" transform="translate(659.08 798.92) rotate(-90.6)"/><rect class="cls-1" x="712.4" y="77.62" width="8.35" height="8.35" transform="translate(642.28 799.18) rotate(-90.6)"/><rect class="cls-1" x="704.13" y="86.06" width="8.35" height="8.35" transform="translate(625.49 799.45) rotate(-90.6)"/><rect class="cls-1" x="695.86" y="94.5" width="8.35" height="8.35" transform="translate(608.7 799.71) rotate(-90.6)"/><rect class="cls-1" x="687.6" y="102.94" width="8.35" height="8.35" transform="translate(591.9 799.97) rotate(-90.6)"/></svg>